<svg xmlns="http://www.w3.org/2000/svg" viewBox="0 0 154 100" width="154" height="100">
	<defs>
		<linearGradient id="grd1" gradientUnits="userSpaceOnUse"  x1="25.556" y1="21.02" x2="53.211" y2="21.02">
			<stop offset="0" stop-color="#7979f3"  />
			<stop offset="0.205" stop-color="#797ff3"  />
			<stop offset="0.596" stop-color="#969ff1"  />
			<stop offset="1" stop-color="#a9b0f9"  />
		</linearGradient>
		<linearGradient id="grd2" gradientUnits="userSpaceOnUse"  x1="90.408" y1="42.605" x2="99.664" y2="42.605">
			<stop offset="0" stop-color="#7979f3"  />
			<stop offset="0.205" stop-color="#797ff3"  />
			<stop offset="0.596" stop-color="#969ff1"  />
			<stop offset="1" stop-color="#a9b0f9"  />
		</linearGradient>
		<linearGradient id="grd3" gradientUnits="userSpaceOnUse"  x1="82.909" y1="54.529" x2="87.629" y2="54.529">
			<stop offset="0" stop-color="#c9f9ff"  />
			<stop offset="0.138" stop-color="#c2f7ff"  />
			<stop offset="0.33" stop-color="#b0f3ff"  />
			<stop offset="0.555" stop-color="#92edff"  />
			<stop offset="0.802" stop-color="#69e5ff"  />
			<stop offset="1" stop-color="#43ddff"  />
		</linearGradient>
		<linearGradient id="grd4" gradientUnits="userSpaceOnUse"  x1="82.909" y1="55.884" x2="83.769" y2="55.884">
			<stop offset="0" stop-color="#c9f9ff"  />
			<stop offset="0.138" stop-color="#c2f7ff"  />
			<stop offset="0.33" stop-color="#b0f3ff"  />
			<stop offset="0.555" stop-color="#92edff"  />
			<stop offset="0.802" stop-color="#69e5ff"  />
			<stop offset="1" stop-color="#43ddff"  />
		</linearGradient>
		<linearGradient id="grd5" gradientUnits="userSpaceOnUse"  x1="-0.001" y1="48.651" x2="62.844" y2="48.651">
			<stop offset="0" stop-color="#7979f3"  />
			<stop offset="0.205" stop-color="#797ff3"  />
			<stop offset="0.596" stop-color="#969ff1"  />
			<stop offset="1" stop-color="#a9b0f9"  />
		</linearGradient>
		<linearGradient id="grd6" gradientUnits="userSpaceOnUse"  x1="62.795" y1="63.589" x2="74.134" y2="63.589">
			<stop offset="0" stop-color="#7979f3"  />
			<stop offset="0.205" stop-color="#797ff3"  />
			<stop offset="0.596" stop-color="#969ff1"  />
			<stop offset="1" stop-color="#a9b0f9"  />
		</linearGradient>
		<linearGradient id="grd7" gradientUnits="userSpaceOnUse"  x1="70.736" y1="71.076" x2="80.257" y2="71.076">
			<stop offset="0" stop-color="#7979f3"  />
			<stop offset="0.205" stop-color="#797ff3"  />
			<stop offset="0.596" stop-color="#969ff1"  />
			<stop offset="1" stop-color="#a9b0f9"  />
		</linearGradient>
		<linearGradient id="grd8" gradientUnits="userSpaceOnUse"  x1="80.209" y1="72.54" x2="87.74" y2="72.54">
			<stop offset="0" stop-color="#7979f3"  />
			<stop offset="0.205" stop-color="#797ff3"  />
			<stop offset="0.596" stop-color="#969ff1"  />
			<stop offset="1" stop-color="#a9b0f9"  />
		</linearGradient>
		<linearGradient id="grd9" gradientUnits="userSpaceOnUse"  x1="87.578" y1="68.98" x2="138.79" y2="68.98">
			<stop offset="0" stop-color="#c9f9ff"  />
			<stop offset="0.138" stop-color="#c2f7ff"  />
			<stop offset="0.33" stop-color="#b0f3ff"  />
			<stop offset="0.555" stop-color="#92edff"  />
			<stop offset="0.802" stop-color="#69e5ff"  />
			<stop offset="1" stop-color="#43ddff"  />
		</linearGradient>
		<linearGradient id="grd10" gradientUnits="userSpaceOnUse"  x1="138.741" y1="84.31" x2="139.595" y2="84.31">
			<stop offset="0" stop-color="#c9f9ff"  />
			<stop offset="0.138" stop-color="#c2f7ff"  />
			<stop offset="0.33" stop-color="#b0f3ff"  />
			<stop offset="0.555" stop-color="#92edff"  />
			<stop offset="0.802" stop-color="#69e5ff"  />
			<stop offset="1" stop-color="#43ddff"  />
		</linearGradient>
		<linearGradient id="grd11" gradientUnits="userSpaceOnUse"  x1="93.81" y1="80.401" x2="101.357" y2="80.401">
			<stop offset="0" stop-color="#7979f3"  />
			<stop offset="0.205" stop-color="#797ff3"  />
			<stop offset="0.596" stop-color="#969ff1"  />
			<stop offset="1" stop-color="#a9b0f9"  />
		</linearGradient>
		<linearGradient id="grd12" gradientUnits="userSpaceOnUse"  x1="83.72" y1="71.221" x2="134.933" y2="71.221">
			<stop offset="0" stop-color="#c9f9ff"  />
			<stop offset="0.138" stop-color="#c2f7ff"  />
			<stop offset="0.33" stop-color="#b0f3ff"  />
			<stop offset="0.555" stop-color="#92edff"  />
			<stop offset="0.802" stop-color="#69e5ff"  />
			<stop offset="1" stop-color="#43ddff"  />
		</linearGradient>
		<linearGradient id="grd13" gradientUnits="userSpaceOnUse"  x1="134.883" y1="85.663" x2="139.595" y2="85.663">
			<stop offset="0" stop-color="#c9f9ff"  />
			<stop offset="0.138" stop-color="#c2f7ff"  />
			<stop offset="0.33" stop-color="#b0f3ff"  />
			<stop offset="0.555" stop-color="#92edff"  />
			<stop offset="0.802" stop-color="#69e5ff"  />
			<stop offset="1" stop-color="#43ddff"  />
		</linearGradient>
		<linearGradient id="grd14" gradientUnits="userSpaceOnUse"  x1="82.957" y1="61.413" x2="139.593" y2="61.413">
			<stop offset="0" stop-color="#7979f3"  />
			<stop offset="0.205" stop-color="#797ff3"  />
			<stop offset="0.596" stop-color="#969ff1"  />
			<stop offset="1" stop-color="#a9b0f9"  />
		</linearGradient>
		<linearGradient id="grd15" gradientUnits="userSpaceOnUse"  x1="84.343" y1="78.93" x2="93.862" y2="78.93">
			<stop offset="0" stop-color="#7979f3"  />
			<stop offset="0.205" stop-color="#797ff3"  />
			<stop offset="0.596" stop-color="#969ff1"  />
			<stop offset="1" stop-color="#a9b0f9"  />
		</linearGradient>
		<linearGradient id="grd16" gradientUnits="userSpaceOnUse"  x1="97.955" y1="86.791" x2="107.466" y2="86.791">
			<stop offset="0" stop-color="#7979f3"  />
			<stop offset="0.205" stop-color="#797ff3"  />
			<stop offset="0.596" stop-color="#969ff1"  />
			<stop offset="1" stop-color="#a9b0f9"  />
		</linearGradient>
		<linearGradient id="grd17" gradientUnits="userSpaceOnUse"  x1="0.05" y1="44.093" x2="153.447" y2="44.093">
			<stop offset="0" stop-color="#7968f3"  />
			<stop offset="0.119" stop-color="#796df3"  />
			<stop offset="0.276" stop-color="#7975f3"  />
			<stop offset="0.455" stop-color="#797af3"  />
			<stop offset="0.65" stop-color="#797ef3"  />
			<stop offset="0.855" stop-color="#7982f3"  />
			<stop offset="1" stop-color="#a0a9fb"  />
		</linearGradient>
		<linearGradient id="grd18" gradientUnits="userSpaceOnUse"  x1="107.415" y1="87.544" x2="153.446" y2="87.544">
			<stop offset="0" stop-color="#7979f3"  />
			<stop offset="0.205" stop-color="#797ff3"  />
			<stop offset="0.596" stop-color="#969ff1"  />
			<stop offset="1" stop-color="#a9b0f9"  />
		</linearGradient>
	</defs>
	<style>
		tspan { white-space:pre }
		.shp0 { fill: url(#grd1) } 
		.shp1 { fill: url(#grd2) } 
		.shp2 { fill: url(#grd3) } 
		.shp3 { fill: url(#grd4) } 
		.shp4 { fill: url(#grd5) } 
		.shp5 { fill: url(#grd6) } 
		.shp6 { fill: url(#grd7) } 
		.shp7 { fill: url(#grd8) } 
		.shp8 { fill: url(#grd9) } 
		.shp9 { fill: url(#grd10) } 
		.shp10 { fill: url(#grd11) } 
		.shp11 { fill: url(#grd12) } 
		.shp12 { fill: url(#grd13) } 
		.shp13 { fill: url(#grd14) } 
		.shp14 { fill: url(#grd15) } 
		.shp15 { fill: url(#grd16) } 
		.shp16 { fill: url(#grd17) } 
		.shp17 { fill: url(#grd18) } 
	</style>
	<g id="Web 1920 – 1">
		<g id="Group 83">
			<g id="Group 119">
				<g id="Group 118">
					<g id="Group 85">
						<g id="Group 84">
							<path id="Path 175" class="shp0" d="M50.95 17.88C53.95 19.61 53.96 22.43 50.99 24.16L44.83 27.73C41.86 29.46 37.01 29.46 34.01 27.73L27.82 24.16C24.81 22.43 24.8 19.61 27.77 17.88L33.93 14.31C36.9 12.58 41.76 12.58 44.77 14.31L50.95 17.88Z" />
						</g>
					</g>
					<path id="Path 176" class="shp1" d="M93.94 36.9L90.46 38.93L90.41 56.3L93.9 54.28C97.7 52.07 99.6 49.17 99.61 46.27L99.66 28.91C99.65 31.81 97.75 34.7 93.94 36.9Z" />
					<g id="Group 88">
						<g id="Group 87">
							<g id="Group 86">
								<path id="Path 177" class="shp2" d="M87.63 45.53L87.58 62.9C86.5 62.27 84.77 62.27 83.7 62.9C83.17 63.2 82.91 63.6 82.91 64L82.95 46.63C82.96 46.23 83.22 45.83 83.75 45.53C84.81 44.9 86.55 44.9 87.63 45.53Z" />
							</g>
						</g>
					</g>
					<g id="Group 91">
						<g id="Group 90">
							<g id="Group 89">
								<path id="Path 178" class="shp3" d="M83.77 47.76L83.72 65.13C83.18 64.82 82.91 64.41 82.91 64L82.95 46.63C82.95 47.04 83.22 47.45 83.77 47.76Z" />
							</g>
						</g>
					</g>
					<g id="Group 92">
						<path id="Path 179" class="shp4" d="M36.09 54.37L5.86 36.91C1.98 34.67 0.04 31.73 0.05 28.79L0 39.61C-0.01 42.55 1.93 45.49 5.81 47.73L36.05 65.18C43.4 69.43 55.08 69.61 62.79 65.73L62.84 54.92C55.13 58.79 43.46 58.61 36.09 54.37Z" />
					</g>
					<g id="Group 94">
						<g id="Group 93">
							<path id="Path 180" class="shp5" d="M74.13 61.44L74.09 72.26L62.79 65.73L62.84 54.92L74.13 61.44Z" />
						</g>
					</g>
					<g id="Group 95">
						<path id="Path 181" class="shp6" d="M78.15 66.2C76.48 67.17 73.75 67.17 72.07 66.2C71.21 65.7 70.78 65.06 70.78 64.41L70.74 75.23C70.74 75.87 71.16 76.52 72.02 77.01C73.7 77.99 76.43 77.99 78.11 77.01L80.21 75.79L80.26 64.97L78.15 66.2Z" />
					</g>
					<g id="Group 97">
						<g id="Group 96">
							<path id="Path 182" class="shp7" d="M87.74 69.29L87.69 80.11L80.21 75.79L80.26 64.97L87.74 69.29Z" />
						</g>
					</g>
					<g id="Group 99">
						<g id="Group 98">
							<path id="Path 183" class="shp8" d="M138.79 75.06L138.74 92.43L87.58 62.9L87.63 45.53L138.79 75.06Z" />
						</g>
					</g>
					<g id="Group 102">
						<g id="Group 101">
							<g id="Group 100">
								<path id="Path 184" class="shp9" d="M139.6 76.19L139.54 93.56C139.54 93.15 139.28 92.74 138.74 92.43L138.79 75.06C139.33 75.37 139.6 75.78 139.6 76.19Z" />
							</g>
						</g>
					</g>
					<g id="Group 104">
						<g id="Group 103">
							<path id="Path 185" class="shp10" d="M101.36 77.16L101.3 87.97L93.81 83.65L93.86 72.83L101.36 77.16Z" />
						</g>
					</g>
					<g id="Group 106">
						<g id="Group 105">
							<path id="Path 186" class="shp11" d="M134.93 77.31L134.88 94.68L83.72 65.14L83.77 47.76L134.93 77.31Z" />
						</g>
					</g>
					<g id="Group 109">
						<g id="Group 108">
							<g id="Group 107">
								<path id="Path 187" class="shp12" d="M139.6 76.19L139.54 93.56C139.54 93.96 139.28 94.37 138.75 94.68C137.68 95.29 135.95 95.29 134.88 94.68L134.93 77.31C136 77.92 137.73 77.92 138.79 77.31C139.33 77 139.59 76.59 139.6 76.19Z" />
							</g>
						</g>
					</g>
					<g id="Group 111">
						<g id="Group 110">
							<path id="Path 188" class="shp13" d="M138.79 75.06C139.86 75.68 139.86 76.69 138.79 77.31C137.73 77.92 136 77.92 134.93 77.31L83.77 47.76C82.69 47.14 82.69 46.14 83.75 45.53C84.81 44.9 86.55 44.9 87.63 45.53L138.79 75.06Z" />
						</g>
					</g>
					<g id="Group 114">
						<g id="Group 112">
							<path id="Path 189" class="shp14" d="M85.67 74.05C84.81 73.56 84.39 72.91 84.39 72.26L84.34 83.08C84.34 83.73 84.77 84.38 85.62 84.87C87.31 85.84 90.04 85.84 91.71 84.87L93.81 83.65L93.86 72.83L91.76 74.05C90.09 75.02 87.36 75.02 85.67 74.05Z" />
						</g>
						<g id="Group 113">
							<path id="Path 190" class="shp15" d="M105.37 81.9C103.69 82.88 100.96 82.88 99.27 81.9C98.43 81.42 98 80.77 98 80.13L97.96 90.95C97.96 91.59 98.38 92.23 99.22 92.72C100.91 93.7 103.64 93.7 105.32 92.72L107.42 91.5L107.47 80.68L105.37 81.9Z" />
						</g>
					</g>
					<g id="Group 116">
						<g id="Group 115">
							<path id="Path 191" fill-rule="evenodd" class="shp16" d="M152.48 74.75C153.77 75.48 153.77 76.68 152.5 77.41L138.72 85.42C132.38 89.11 122.05 89.11 115.67 85.42L107.47 80.68L105.37 81.9C103.69 82.88 100.96 82.88 99.27 81.9C97.59 80.93 97.58 79.35 99.25 78.38L101.36 77.16L93.86 72.83L91.76 74.05C90.09 75.02 87.36 75.02 85.67 74.05C83.98 73.07 83.97 71.49 85.64 70.52L87.74 69.29L80.26 64.97L78.15 66.2C76.48 67.17 73.75 67.17 72.07 66.2C70.37 65.22 70.36 63.63 72.03 62.66L74.13 61.44L62.84 54.92C55.13 58.79 43.46 58.61 36.09 54.37L5.86 36.91C-1.85 32.46 -1.89 25.24 5.76 20.8L35.8 3.34C43.46 -1.11 55.91 -1.11 63.62 3.34L93.86 20.8C101.56 25.24 101.61 32.46 93.94 36.9L90.46 38.93L152.48 74.75ZM44.83 27.73L50.99 24.16C53.96 22.43 53.95 19.61 50.95 17.88L44.77 14.31C41.76 12.58 36.9 12.58 33.93 14.31L27.77 17.88C24.8 19.61 24.81 22.43 27.82 24.16L34.01 27.73C37.01 29.46 41.86 29.46 44.83 27.73ZM134.93 77.31C136 77.92 137.73 77.92 138.79 77.31C139.86 76.69 139.86 75.68 138.79 75.06L87.63 45.53C86.55 44.9 84.81 44.9 83.75 45.53C82.69 46.14 82.69 47.14 83.77 47.76L134.93 77.31Z" />
						</g>
					</g>
					<g id="Group 117">
						<path id="Path 192" class="shp17" d="M152.5 77.41L138.72 85.42C132.38 89.11 122.05 89.11 115.67 85.42L107.47 80.68L107.42 91.5L115.62 96.24C122.01 99.92 132.33 99.92 138.68 96.24L152.45 88.23C153.08 87.87 153.4 87.39 153.4 86.9L153.45 76.09C153.45 76.57 153.13 77.05 152.5 77.41Z" />
					</g>
				</g>
			</g>
		</g>
	</g>
</svg>