<svg xmlns="http://www.w3.org/2000/svg" viewBox="0 0 162 94" width="162" height="94">
	<defs>
		<linearGradient id="grd1" gradientUnits="userSpaceOnUse"  x1="115.534" y1="80.13" x2="17.611" y2="-21.819">
			<stop offset="0" stop-color="#7979f3"  />
			<stop offset="0.205" stop-color="#797ff3"  />
			<stop offset="0.596" stop-color="#969ff1"  />
			<stop offset="1" stop-color="#a9b0f9"  />
		</linearGradient>
		<linearGradient id="grd2" gradientUnits="userSpaceOnUse"  x1="1610.524" y1="-1995.747" x2="1654.672" y2="-1995.747">
			<stop offset="0" stop-color="#7979f3"  />
			<stop offset="0.205" stop-color="#797ff3"  />
			<stop offset="0.596" stop-color="#969ff1"  />
			<stop offset="1" stop-color="#a9b0f9"  />
		</linearGradient>
		<linearGradient id="grd3" gradientUnits="userSpaceOnUse"  x1="1652.755" y1="-1958.386" x2="1555.54" y2="-1944.111">
			<stop offset="0" stop-color="#7969f3"  />
			<stop offset="1" stop-color="#7985f3"  />
		</linearGradient>
	</defs>
	<style>
		tspan { white-space:pre }
		.shp0 { fill: url(#grd1) } 
		.shp1 { fill: #eef2f5 } 
		.shp2 { fill: url(#grd2) } 
		.shp3 { fill: url(#grd3) } 
	</style>
	<g id="Web 1920 – 1">
		<g id="Group 121">
			<g id="Group 125">
				<path id="Path 194" class="shp0" d="M133.69 15.3C135.3 16.22 136.39 17.46 136.64 18.84L144.14 60.33L91.71 91.05C88.49 92.94 83.25 92.95 79.99 91.09L3.46 47.27C0.2 45.4 0.18 42.36 3.4 40.48L55.82 9.76L127.53 13.62C129.92 13.76 132.08 14.37 133.69 15.3Z" />
				<path id="Path 195" class="shp1" d="M92.97 0.5C91.79 -0.17 89.88 -0.17 88.71 0.52L27.46 36.24C26.29 36.93 26.29 38.03 27.48 38.71L94.26 76.86C95.44 77.55 97.35 77.54 98.52 76.85L159.77 41.13C160.94 40.45 160.93 39.34 159.75 38.66L92.97 0.5Z" />
				<g id="Group 124">
					<path id="Path 196" class="shp2" d="M144.14 60.33L115.01 77.39L91.71 91.05C89.93 92.09 87.52 92.56 85.17 92.46L70.85 52.11L144.14 60.33Z" />
				</g>
				<path id="Path 197" class="shp3" d="M55.82 9.76L3.4 40.48C0.18 42.36 0.2 45.4 3.46 47.27L79.99 91.09C81.44 91.92 83.28 92.35 85.16 92.44L70.85 52.11L55.82 9.76Z" />
			</g>
		</g>
	</g>
</svg>