<svg xmlns="http://www.w3.org/2000/svg" viewBox="0 0 78 134" width="78" height="134">
	<defs>
		<clipPath clipPathUnits="userSpaceOnUse" id="cp1">
			<path d="M26.1 64.34L25.17 64.95C25.25 64.89 25.35 64.85 25.44 64.81C26.13 64.55 26.93 64.87 27.35 65.08C27.47 65.14 27.56 65.19 27.61 65.22L28.54 64.61C28.49 64.58 28.4 64.53 28.29 64.47C27.86 64.26 27.06 63.94 26.37 64.2C26.27 64.24 26.18 64.28 26.1 64.34Z" />
		</clipPath>
		<clipPath clipPathUnits="userSpaceOnUse" id="cp2">
			<path d="M55.34 112.24L56.27 111.64C56.3 111.61 56.33 111.59 56.36 111.57C56.95 111.04 56.71 109.71 56.68 109.56C56.63 109.3 51.64 82.9 51.16 79.64C50.95 78.25 50.46 77.04 49.7 76.04C48.94 75.05 49.09 75.02 43.62 72.24C40.62 70.72 35.95 68.38 28.54 64.61L27.61 65.22C35.02 68.99 39.7 71.33 42.69 72.85C48.16 75.63 48.01 75.65 48.77 76.65C49.53 77.66 50.02 78.86 50.22 80.25C50.71 83.51 55.7 109.91 55.75 110.17C55.78 110.32 56.02 111.65 55.43 112.17C55.4 112.2 55.37 112.23 55.34 112.24Z" />
		</clipPath>
		<clipPath clipPathUnits="userSpaceOnUse" id="cp3">
			<path d="M6.59 75.28L5.64 75.86C5.72 75.8 5.81 75.76 5.91 75.73C6.62 75.5 7.4 75.84 7.82 76.07C7.93 76.13 8.02 76.19 8.06 76.22L9.01 75.65C8.97 75.62 8.88 75.56 8.77 75.49C8.36 75.26 7.57 74.93 6.87 75.15C6.77 75.19 6.68 75.23 6.59 75.28Z" />
		</clipPath>
		<clipPath clipPathUnits="userSpaceOnUse" id="cp4">
			<path d="M34.02 124.24L34.97 123.67C35.01 123.65 35.04 123.63 35.06 123.61C35.68 123.1 35.49 121.76 35.46 121.61C35.42 121.35 31.42 94.78 31.06 91.51C30.91 90.12 30.46 88.89 29.74 87.86C29.01 86.84 29.17 86.81 23.81 83.83C20.87 82.2 16.29 79.68 9.01 75.65L8.06 76.22C15.34 80.26 19.92 82.77 22.85 84.4C28.22 87.38 28.06 87.41 28.78 88.43C29.51 89.46 29.95 90.69 30.11 92.08C30.47 95.35 34.47 121.93 34.51 122.19C34.53 122.34 34.73 123.68 34.11 124.18C34.08 124.2 34.05 124.23 34.02 124.24Z" />
		</clipPath>
		<linearGradient id="grd1" gradientUnits="userSpaceOnUse"  x1="53.682" y1="119.884" x2="53.682" y2="132.333">
			<stop offset="0" stop-color="#7969f3"  />
			<stop offset="1" stop-color="#7985f3"  />
		</linearGradient>
		<linearGradient id="grd2" gradientUnits="userSpaceOnUse"  x1="64.702" y1="105.821" x2="64.702" y2="117.32">
			<stop offset="0" stop-color="#7969f3"  />
			<stop offset="1" stop-color="#7985f3"  />
		</linearGradient>
		<linearGradient id="grd3" gradientUnits="userSpaceOnUse"  x1="43.195" y1="51.259" x2="43.195" y2="110.791">
			<stop offset="0" stop-color="#7979f3"  />
			<stop offset="0.205" stop-color="#797ff3"  />
			<stop offset="0.596" stop-color="#969ff1"  />
			<stop offset="1" stop-color="#a9b0f9"  />
		</linearGradient>
		<linearGradient id="grd4" gradientUnits="userSpaceOnUse"  x1="-4635.245" y1="68.337" x2="-4627.729" y2="33.44">
			<stop offset="0" stop-color="#7979f3"  />
			<stop offset="0.205" stop-color="#797ff3"  />
			<stop offset="0.596" stop-color="#969ff1"  />
			<stop offset="1" stop-color="#a9b0f9"  />
		</linearGradient>
		<linearGradient id="grd5" gradientUnits="userSpaceOnUse"  x1="32.814" y1="57.971" x2="32.814" y2="125.298">
			<stop offset="0" stop-color="#7979f3"  />
			<stop offset="0.205" stop-color="#797ff3"  />
			<stop offset="0.596" stop-color="#969ff1"  />
			<stop offset="1" stop-color="#a9b0f9"  />
		</linearGradient>
		<linearGradient id="grd6" gradientUnits="userSpaceOnUse"  x1="-4628.087" y1="48.214" x2="-4590.648" y2="48.214">
			<stop offset="0" stop-color="#7969f3"  />
			<stop offset="1" stop-color="#7985f3"  />
		</linearGradient>
		<linearGradient id="grd7" gradientUnits="userSpaceOnUse"  x1="-4619.374" y1="34.88" x2="-4618.837" y2="48.662">
			<stop offset="0" stop-color="#7979f3"  />
			<stop offset="0.205" stop-color="#797ff3"  />
			<stop offset="0.596" stop-color="#969ff1"  />
			<stop offset="1" stop-color="#a9b0f9"  />
		</linearGradient>
		<linearGradient id="grd8" gradientUnits="userSpaceOnUse"  x1="37.957" y1="32.395" x2="37.957" y2="51.093">
			<stop offset="0" stop-color="#7979f3"  />
			<stop offset="0.205" stop-color="#797ff3"  />
			<stop offset="0.596" stop-color="#969ff1"  />
			<stop offset="1" stop-color="#a9b0f9"  />
		</linearGradient>
		<linearGradient id="grd9" gradientUnits="userSpaceOnUse"  x1="41.199" y1="22.677" x2="41.199" y2="51.527">
			<stop offset="0" stop-color="#7979f3"  />
			<stop offset="0.205" stop-color="#797ff3"  />
			<stop offset="0.596" stop-color="#969ff1"  />
			<stop offset="1" stop-color="#a9b0f9"  />
		</linearGradient>
		<linearGradient id="grd10" gradientUnits="userSpaceOnUse"  x1="34.514" y1="50.241" x2="34.514" y2="65.082">
			<stop offset="0" stop-color="#7985f3"  />
			<stop offset="1" stop-color="#7967f3"  />
		</linearGradient>
		<linearGradient id="grd11" gradientUnits="userSpaceOnUse"  x1="33.326" y1="22.224" x2="33.326" y2="52.25">
			<stop offset="0" stop-color="#7979f3"  />
			<stop offset="0.205" stop-color="#797ff3"  />
			<stop offset="0.596" stop-color="#969ff1"  />
			<stop offset="1" stop-color="#a9b0f9"  />
		</linearGradient>
		<linearGradient id="grd12" gradientUnits="userSpaceOnUse"  x1="-4639.655" y1="62.564" x2="-4630.354" y2="62.564">
			<stop offset="0" stop-color="#7985f3"  />
			<stop offset="1" stop-color="#7967f3"  />
		</linearGradient>
		<linearGradient id="grd13" gradientUnits="userSpaceOnUse"  x1="-4627.294" y1="63.49" x2="-4598.662" y2="37.9">
			<stop offset="0" stop-color="#7979f3"  />
			<stop offset="0.205" stop-color="#797ff3"  />
			<stop offset="0.596" stop-color="#969ff1"  />
			<stop offset="1" stop-color="#a9b0f9"  />
		</linearGradient>
		<linearGradient id="grd14" gradientUnits="userSpaceOnUse"  x1="34.596" y1="1.001" x2="34.596" y2="20.264">
			<stop offset="0" stop-color="#7979f3"  />
			<stop offset="0.205" stop-color="#797ff3"  />
			<stop offset="0.596" stop-color="#969ff1"  />
			<stop offset="1" stop-color="#a9b0f9"  />
		</linearGradient>
	</defs>
	<style>
		tspan { white-space:pre }
		.shp0 { fill: #dbe4ec } 
		.shp1 { fill: #8e8a8b } 
		.shp2 { fill: #b1becc } 
		.shp3 { fill: #d8d4d5 } 
		.shp4 { fill: #edf6ff } 
		.shp5 { fill: #c7cfd6 } 
		.shp6 { fill: url(#grd1) } 
		.shp7 { fill: url(#grd2) } 
		.shp8 { fill: url(#grd3) } 
		.shp9 { fill: url(#grd4) } 
		.shp10 { fill: url(#grd5) } 
		.shp11 { fill: url(#grd6) } 
		.shp12 { fill: #ededed } 
		.shp13 { fill: url(#grd7) } 
		.shp14 { fill: url(#grd8) } 
		.shp15 { fill: #ffffff } 
		.shp16 { fill: url(#grd9) } 
		.shp17 { fill: url(#grd10) } 
		.shp18 { fill: url(#grd11) } 
		.shp19 { fill: #fafafa } 
		.shp20 { fill: url(#grd12) } 
		.shp21 { fill: url(#grd13) } 
		.shp22 { fill: url(#grd14) } 
	</style>
	<g id="Web 1920 – 1">
		<g id="Group 192">
			<g id="Group 187">
				<g id="Group 173">
					<g id="Group 172">
						<path id="Path 249" class="shp0" d="M22.59 93.52C22.7 92.59 25.11 70.66 25.28 67.71C25.33 66.88 25.55 66.33 25.93 66.09L26.85 65.48C26.48 65.72 26.26 66.27 26.21 67.1C26.04 70.06 23.63 91.97 23.52 92.91C23.49 93.13 23.5 93.82 23.81 94.35C23.98 94.64 24.24 94.88 24.61 95.06C28.3 96.94 51.09 108.51 54.79 110.39C55.13 110.56 55.37 110.59 55.52 110.5L54.59 111.1C54.44 111.21 54.2 111.17 53.86 111C50.16 109.12 27.37 97.55 23.67 95.67C23.31 95.49 23.05 95.25 22.88 94.96C22.57 94.43 22.56 93.74 22.59 93.52Z" />
						<g id="Group 167">
							<g id="Group 166" clip-path="url(#cp1)">
								<g id="Group 165">
									<path id="Path 250" class="shp1" d="M27.61 65.22L28.54 64.61C28.49 64.58 28.4 64.53 28.29 64.47C27.86 64.26 27.06 63.94 26.37 64.2C26.27 64.24 26.18 64.28 26.1 64.34L25.17 64.95C25.25 64.89 25.35 64.85 25.44 64.81C26.13 64.55 26.93 64.87 27.35 65.08C27.47 65.14 27.56 65.19 27.61 65.22L27.61 65.22Z" />
								</g>
							</g>
						</g>
						<g id="Group 170">
							<g id="Group 169" clip-path="url(#cp2)">
								<g id="Group 168">
									<path id="Path 252" class="shp0" d="M55.34 112.24L56.27 111.64C56.3 111.61 56.33 111.59 56.36 111.57C56.95 111.04 56.71 109.71 56.68 109.56C56.63 109.3 51.64 82.9 51.16 79.64C50.95 78.25 50.46 77.04 49.7 76.04C48.94 75.05 49.09 75.02 43.62 72.24C40.62 70.72 35.95 68.38 28.54 64.61L27.61 65.22C35.02 68.99 39.7 71.33 42.69 72.85C48.16 75.63 48.01 75.65 48.77 76.65C49.53 77.66 50.02 78.86 50.22 80.25C50.71 83.51 55.7 109.91 55.75 110.17C55.78 110.32 56.02 111.65 55.43 112.17C55.4 112.2 55.37 112.23 55.34 112.24L55.34 112.24Z" />
								</g>
							</g>
						</g>
						<g id="Group 171">
							<path id="Path 254" fill-rule="evenodd" class="shp2" d="M24.28 67.08C24.35 65.83 24.74 65.07 25.44 64.81C26.13 64.55 26.93 64.87 27.35 65.08C27.47 65.14 27.56 65.19 27.61 65.22C35.02 68.99 39.7 71.33 42.69 72.85C48.16 75.63 48.01 75.65 48.77 76.65C49.53 77.66 50.02 78.86 50.22 80.25C50.71 83.51 55.7 109.91 55.75 110.17C55.78 110.32 56.02 111.65 55.43 112.17C55.2 112.38 54.76 112.53 53.92 112.11C50.22 110.23 27.43 98.66 23.74 96.78C22.9 96.36 22.41 95.73 22.15 95.28C21.47 94.11 21.59 92.96 21.6 92.83C21.63 92.61 24.11 70 24.28 67.08ZM23.67 95.67C27.37 97.55 50.16 109.12 53.86 111C54.23 111.19 54.48 111.21 54.63 111.08C54.9 110.84 54.83 110.12 54.78 109.87C48.56 77.01 49.32 78.7 48.22 77.23C47.7 76.56 47.13 76.21 46.85 76.06C46.74 76.01 46.68 75.99 46.68 75.99L37.72 71.44C36.99 71.07 37.26 71.21 36.53 70.83L27.57 66.28C27.57 66.28 27.5 66.24 27.39 66.19C27.12 66.05 26.55 65.82 26.09 66C25.61 66.19 25.33 66.77 25.28 67.71C25.11 70.66 22.7 92.59 22.59 93.52C22.56 93.74 22.57 94.43 22.88 94.96C23.05 95.25 23.31 95.49 23.67 95.67Z" />
						</g>
					</g>
				</g>
				<g id="Group 183">
					<g id="Group 182">
						<g id="Group 174">
							<path id="Path 255" class="shp3" d="M33.32 123.08L34.27 122.5C34.11 122.6 33.87 122.56 33.54 122.37C29.91 120.36 7.57 107.95 3.95 105.94C3.59 105.74 3.34 105.49 3.18 105.19L2.23 105.76C2.39 106.07 2.64 106.31 3 106.51C6.62 108.52 28.96 120.93 32.59 122.95C32.92 123.13 33.16 123.18 33.32 123.08L33.32 123.08Z" />
						</g>
						<path id="Path 256" class="shp0" d="M1.99 104.31C2.14 103.38 5.37 81.56 5.64 78.62C5.73 77.79 5.97 77.26 6.35 77.02L7.3 76.44C6.91 76.68 6.68 77.22 6.6 78.05C6.32 80.99 3.08 102.8 2.95 103.74C2.91 103.96 2.89 104.64 3.18 105.19C3.34 105.49 3.59 105.74 3.95 105.94C7.57 107.95 29.91 120.36 33.54 122.37C33.87 122.56 34.11 122.6 34.27 122.5L33.32 123.08C33.16 123.18 32.92 123.13 32.59 122.95C28.96 120.93 6.62 108.52 3 106.51C2.64 106.31 2.39 106.07 2.23 105.76C1.94 105.22 1.96 104.54 1.99 104.31Z" />
						<g id="Group 177">
							<g id="Group 176" clip-path="url(#cp3)">
								<g id="Group 175">
									<path id="Path 257" class="shp1" d="M8.06 76.22L9.01 75.65C8.97 75.62 8.88 75.56 8.77 75.49C8.36 75.26 7.57 74.93 6.87 75.15C6.77 75.19 6.68 75.23 6.59 75.28L5.64 75.86C5.72 75.8 5.81 75.76 5.91 75.73C6.62 75.5 7.4 75.84 7.82 76.07C7.93 76.13 8.02 76.19 8.06 76.22L8.06 76.22Z" />
								</g>
							</g>
						</g>
						<g id="Group 180">
							<g id="Group 179" clip-path="url(#cp4)">
								<g id="Group 178">
									<path id="Path 259" class="shp0" d="M34.02 124.24L34.97 123.67C35.01 123.65 35.04 123.63 35.06 123.61C35.68 123.1 35.49 121.76 35.46 121.61C35.42 121.35 31.42 94.78 31.06 91.51C30.91 90.12 30.46 88.89 29.74 87.86C29.01 86.84 29.17 86.81 23.81 83.83C20.87 82.2 16.29 79.68 9.01 75.65L8.06 76.22C15.34 80.26 19.92 82.77 22.85 84.4C28.22 87.38 28.06 87.41 28.78 88.43C29.51 89.46 29.95 90.69 30.11 92.08C30.47 95.35 34.47 121.93 34.51 122.19C34.53 122.34 34.73 123.68 34.11 124.18C34.08 124.2 34.05 124.23 34.02 124.24L34.02 124.24Z" />
								</g>
							</g>
						</g>
						<g id="Group 181">
							<path id="Path 261" fill-rule="evenodd" class="shp2" d="M4.67 77.95C4.79 76.71 5.21 75.96 5.91 75.73C6.62 75.5 7.4 75.84 7.82 76.07C7.93 76.13 8.02 76.19 8.06 76.22C15.34 80.26 19.92 82.77 22.85 84.4C28.22 87.38 28.06 87.41 28.78 88.43C29.51 89.46 29.95 90.69 30.11 92.08C30.47 95.35 34.47 121.93 34.51 122.19C34.53 122.34 34.73 123.68 34.11 124.18C33.87 124.38 33.43 124.51 32.61 124.06C28.99 122.05 6.65 109.64 3.02 107.62C2.19 107.16 1.73 106.52 1.49 106.06C0.85 104.86 1.01 103.71 1.03 103.58C1.06 103.36 4.4 80.87 4.67 77.95ZM3 106.51C6.62 108.52 28.96 120.93 32.59 122.95C32.95 123.15 33.19 123.18 33.35 123.05C33.63 122.83 33.59 122.11 33.55 121.85C28.56 88.78 29.26 90.49 28.21 88.99C27.72 88.29 27.16 87.92 26.89 87.78C26.79 87.72 26.73 87.69 26.73 87.69L17.94 82.82C17.22 82.42 17.49 82.57 16.77 82.17L7.99 77.28C7.99 77.28 7.92 77.24 7.82 77.18C7.54 77.03 6.99 76.78 6.52 76.94C6.03 77.11 5.74 77.68 5.64 78.62C5.37 81.56 2.14 103.38 1.99 104.31C1.96 104.54 1.94 105.22 2.23 105.76C2.39 106.07 2.64 106.31 3 106.51Z" />
						</g>
					</g>
				</g>
				<g id="Group 186">
					<path id="Path 262" class="shp4" d="M4.8 75.01L31.24 59.65C31.22 59.71 30.87 60.96 32.44 61.87C34.01 62.78 52.11 73.24 53.28 73.92C53.36 73.98 54.85 74.97 55.63 76.39C56.3 77.59 56.01 78.24 55.99 78.27L29.56 93.63C29.58 93.6 29.86 92.95 29.2 91.75C28.42 90.33 26.93 89.33 26.85 89.28C25.68 88.61 7.58 78.14 6.01 77.23C4.44 76.33 4.79 75.08 4.8 75.01Z" />
					<g id="Group 184">
						<path id="Path 263" class="shp4" d="M7.18 48.54C7.31 43.75 5.49 41.99 5.39 41.9C5.32 41.87 5.26 41.85 5.22 41.87C14.03 36.74 22.84 31.63 31.65 26.5C31.69 26.48 31.75 26.5 31.82 26.54C31.92 26.63 33.74 28.39 33.61 33.18C33.48 37.97 31.35 58.57 31.24 59.65L4.8 75.01C4.91 73.92 7.05 53.33 7.18 48.54Z" />
					</g>
					<g id="Group 185">
						<path id="Path 264" class="shp5" d="M5.39 41.9C5.13 41.77 5.02 41.85 5.6 43.41C5.95 44.37 6.24 46.39 6.17 47.51C6.05 49.13 3 70.63 2.51 74.24C2.04 77.61 4.12 78.93 4.4 79.09L29.56 93.63C29.58 93.6 29.86 92.95 29.2 91.75C28.42 90.33 26.93 89.33 26.85 89.28C25.68 88.61 7.58 78.14 6.01 77.23C4.44 76.33 4.79 75.08 4.8 75.01C4.91 73.92 7.05 53.33 7.18 48.54C7.31 43.75 5.49 41.99 5.39 41.9Z" />
					</g>
				</g>
			</g>
			<g id="Group 191">
				<g id="Group 190">
					<path id="Path 265" class="shp6" d="M42.41 120.58L52.57 119.88L59.25 124.21C59.25 124.21 62.61 126.28 63.81 126.79C64.36 127.03 64.79 127.64 64.91 128.28C64.92 128.33 64.9 128.39 64.91 128.46C64.91 128.45 64.92 128.44 64.93 128.43C64.96 128.38 65 129.02 64.83 129.34C64.25 130.56 62.81 131.21 61.68 131.71C57.86 133.38 54.13 131.18 54.13 131.18C53.49 130.88 49.53 128.85 49.23 128.61C49.23 128.61 48.97 128.47 48.65 128.33L47.14 129.35L47.14 129.35L47.13 129.35L47.13 129.35L47.13 129.35L47.13 129.35L47.13 129.35L47.12 129.35C47.05 129.32 45.02 128.6 44.33 128.29C43.54 127.96 43.46 127.57 43.46 127.57C43.41 127.6 43.13 126.2 43.13 126.2C43.13 126.2 43.15 126.23 43.16 126.25C43.1 125.98 43.04 125.71 43.01 125.49L42.41 120.58Z" />
					<path id="Path 266" class="shp7" d="M52.58 106.11L63.92 105.82L67.6 108.64C67.6 108.64 75.36 112.12 75.97 112.34C76.38 112.49 77.04 112.98 77.02 113.72C77.02 113.81 77.01 113.88 77 113.95C77.02 114.21 77.03 114.55 77.02 114.91C77.02 115.21 77 115.39 76.82 115.65C76.17 116.59 74.85 117.1 73.6 117.24C69.96 117.65 64.99 116.51 61.81 115.27C61.06 114.98 60.29 114.9 59.57 114.98L58.23 116.11L58.23 116.12L58.23 116.11L58.23 116.12L58.23 116.11C58.2 116.11 56.03 115.71 55.29 115.51C54.46 115.3 53.95 114.64 53.95 114.64C53.72 114.4 53.44 113.66 53.44 113.66L53.49 113.69C52.98 113.08 52.74 111.7 52.6 110.97C52.12 108.33 52.58 106.11 52.58 106.11Z" />
					<path id="Path 267" class="shp8" d="M19.84 51.26L28.89 55.67L50.97 67.73C50.97 67.73 60.68 73.02 61.24 79.81C61.68 85.02 66.37 106.04 66.37 106.04C66.84 107.52 66.37 108.6 65.16 109.05C59.05 111.34 54 110.71 54 110.71C53.44 110.39 52.39 108.05 52.34 107.56L46.63 80.72L27.06 69.38C27.06 69.38 20.63 66.48 20.22 61.57C20.05 59.55 19.84 51.26 19.84 51.26Z" />
					<path id="Path 268" class="shp9" d="M50.33 55.19C50.2 54.82 41.99 41.83 41.99 41.83C41.99 41.83 40.06 25.1 43.38 24.38C46.66 23.66 48.16 27.41 50.23 33.92C50.72 35.44 57.44 51.36 58.03 52.76C59.58 56.43 58.63 60.65 58.63 60.65C58.63 60.65 52.06 58.71 50.57 57.05C50.12 56.54 50.52 55.77 50.33 55.19Z" />
					<path id="Path 269" class="shp10" d="M11.07 57.97L24.32 66.52C24.32 66.52 49.08 82.88 49.22 90.55C49.3 94.8 53.46 108.6 55.67 122.92C55.91 124.53 48.51 127.32 42.81 122.98C42.3 122.58 38.26 100.31 38.22 99.81C38.22 99.81 37.09 93.16 34.98 90.9C33.42 89.22 17.94 81.47 17.94 81.47C17.94 81.47 10.05 76.67 9.96 68.81C9.93 66.78 11.07 57.97 11.07 57.97Z" />
					<path id="Path 270" class="shp11" d="M47 26.28C47.61 30.89 48.04 33.74 45.18 41.43L37.68 58.14C37.29 59.17 39.41 59.01 37.3 64.09C33.85 72.44 23.28 73.79 20.01 74.18C15.93 74.65 11.75 73.7 11.75 73.7C8.58 66.78 10.73 57.97 10.65 58.34C10.65 58.34 14.76 38.25 17.82 31.55C18.78 29.43 22.81 27.88 26.02 26.27C29.3 24.63 32.4 23.53 32.4 23.53L40.82 22.12C40.82 22.12 46.58 23.16 47 26.28Z" />
					<path id="Path 271" class="shp12" d="M39.57 23.06C39.57 23.06 37.6 21.28 36.18 21.81C35.47 22.08 35.13 22.7 35.22 23.54C35.32 24.37 35.74 25.17 35.74 25.17L39.57 23.06Z" />
					<path id="Path 272" class="shp13" d="M32.75 24.84C32.75 24.84 33.28 24.39 35.96 24.63C38.64 24.87 45.68 28.83 45.68 28.83C45.68 28.83 44.16 37.45 43.94 38.05C41.77 43.82 36.01 51.07 36.01 51.07L35 41.17L32.75 24.84Z" />
					<path id="Path 273" class="shp14" d="M39.56 38.03C39.61 37.63 39.72 37.35 39.97 36.95L40.82 35.4L40.12 32.4L38.96 32.47L37.11 35.1L37.82 36.83C38 37.21 38 38.02 37.82 38.39L35.09 47.5L36.12 51.09L38.88 47.89L39.56 38.03Z" />
					<path id="Path 274" class="shp15" d="M37.46 22C37.46 22 36.89 22.01 36.5 22.13C35.97 22.31 35.81 24.21 35.86 24.92C36.33 30 39.42 31.97 39.42 31.97C39.92 32.44 39.67 32.57 39.39 32.95L37.01 36.42C36.61 37.08 36.36 36.97 36.11 36.44C36.11 36.44 33.62 31.35 33.02 29.79C31.59 26.13 31.39 26 33.82 23.19C34.73 22.14 35.41 21.77 35.9 21.6C37.18 21.15 37.46 22 37.46 22Z" />
					<path id="Path 275" class="shp15" d="M40.03 32.14C39.53 32.38 39.8 32.65 39.92 33.16L40.67 36.17C40.92 37.14 41.1 36.75 41.44 35.98L44.29 30.17C45.42 26.53 43.26 23.75 43.26 23.75C43.26 23.75 43.55 26.37 43.31 27.12C42.92 28.36 42.7 30.84 40.03 32.14Z" />
					<path id="Path 276" class="shp16" d="M44.48 27.96L43.28 23.7L43.21 22.68C43.21 22.68 45.65 24.08 46.46 27.72C46.75 29.01 46.64 30.62 46.64 30.62L46.15 37.81C46.08 38.82 45.29 38.96 44.32 39.58L43.4 40.13L43.94 41.46C44.54 42.52 43.79 43.19 42.93 44.15L35.74 51.53C35.74 51.53 38.94 45.79 40.55 42.38C44.35 34.36 44.48 27.96 44.48 27.96Z" />
					<g id="Group 188">
						<path id="Path 277" class="shp17" d="M32.67 65.08C32.59 64.68 32.9 63.51 33.69 60.7C33.89 59.99 34.11 59.22 34.34 58.36C35.34 54.72 35.82 50.29 35.82 50.24L36.37 50.3C36.37 50.34 35.89 54.82 34.88 58.51C34.65 59.36 34.42 60.14 34.23 60.85C33.65 62.91 33.16 64.68 33.21 64.97L32.67 65.08Z" />
					</g>
					<path id="Path 278" class="shp18" d="M34.85 22.22L32.28 22.92C32.28 22.92 31.58 23.18 31.09 24.14C30.56 25.19 30.57 26.79 30.57 26.79L30.3 35.03C30.21 36.66 30.57 36.97 31.54 37.66L34.4 39.75L32.13 41.44C31.12 42.29 31.22 42.36 31.45 43.17L36.08 52.25C36.08 52.25 37 45.95 35.53 36.79C35.22 34.8 34.16 28.59 34.06 25.05C34 22.64 34.85 22.22 34.85 22.22Z" />
					<path id="Path 279" class="shp19" d="M53.97 73.04C53.3 74.17 51.34 74.01 50.32 73.4C49.96 73.19 48.5 75.17 47.5 75.64C46.46 76.15 45.9 75.14 45.91 74.82C45.92 74.56 47.05 73.77 48.72 72C50.04 70.6 53.54 68.49 54.57 69.09C55.59 69.7 54.64 71.92 53.97 73.04Z" />
					<path id="Path 280" class="shp19" d="M56.76 66.94C53.78 64.71 52.78 67.06 52.78 67.06C52.78 67.06 48.2 71.82 47.71 73.48C47.38 74.59 46.72 78.96 47.03 79.81C47.36 80.68 48.91 80.11 48.91 80.11C51.25 79.88 52.17 77.83 52.17 77.83L55 73.2C58.22 68.95 57.11 67.2 56.76 66.94Z" />
					<path id="Path 281" class="shp20" d="M49.52 68.49C49.52 68.49 51.16 58.4 50.69 56.16C50.23 54 53.75 52.74 55.98 53.55C57.57 54.14 58.28 54.72 58.66 56.42C59.03 58.04 58.64 61.79 58.58 62.48C57.96 68.69 56.92 71.82 56.92 71.82L49.52 68.49Z" />
					<path id="Path 282" class="shp19" d="M52.11 54.1C50.71 57.54 53.23 57.92 53.23 57.92C53.23 57.92 58.99 61.17 60.71 61.22C61.86 61.26 66.27 60.81 67.02 60.29C67.77 59.76 66.83 58.4 66.83 58.4C66.29 57.09 62.27 56.79 62.27 56.79L57.36 54.25C54.41 51.53 52.28 53.68 52.11 54.1Z" />
					<path id="Path 283" class="shp21" d="M51.72 56.44C52.39 60.11 53.87 59.33 53.81 59.36C49.02 61.51 37.6 63.19 33.94 64.02C27.12 65.56 24.87 59.6 24.87 59.6C24.87 59.6 18.31 45.89 16.67 34.54C15.83 28.67 22.98 29.7 26.14 35.28C27.91 38.4 31.3 47.32 33.27 52.42C33.62 53.34 33.73 53.32 34.35 53.63C35.32 54.14 34.97 54.53 34.97 54.53L52.86 52.34C52.86 52.34 51.24 53.74 51.72 56.44Z" />
					<path id="Path 284" class="shp19" d="M55.84 57C56.95 57.15 57.87 55.74 58 54.74C58.05 54.39 60.15 54.44 60.99 54.03C61.88 53.6 61.49 52.69 61.28 52.52C61.1 52.39 59.97 52.75 57.9 52.93C56.26 53.07 53 54.31 52.87 55.32C52.75 56.33 54.73 56.86 55.84 57Z" />
					<path id="Path 285" class="shp19" d="M43.25 16.94C43.25 16.94 42.9 19.28 43.31 24.16C43.4 25.33 43.52 26.24 43.28 27.55C43.17 28.18 42.74 30.83 39.75 32.42C39.75 32.42 36.56 30.25 35.22 24.13C33.88 18.02 43.25 16.94 43.25 16.94Z" />
					<g id="Group 189">
						<path id="Path 286" class="shp19" d="M34.01 6.23L34.01 6.23L41.62 6.88L40.66 18.91C40.48 19.84 40.07 23.06 39.85 23.85C39.61 24.71 39.32 25.63 37.86 26.47C37.86 26.47 34.2 28.89 32.74 29.2C31.78 29.4 29.9 28.4 29.9 28.4C28.8 27.58 27.8 25.52 27.37 22.96L25.36 11.78L26.33 7.19L34.01 6.23Z" />
						<path id="Path 287" class="shp22" d="M25.41 6.02C24.85 6.78 23.27 8.77 23.32 8.82C23.79 9.3 25.1 10.76 25.32 11.58C25.43 11.99 27.23 13.87 31.95 11.77C33.29 11.17 35.41 10.35 36.58 14.12C36.83 14.94 37.47 17.48 37.7 18.56C37.96 19.78 38.32 19.08 38.37 19.1C38.63 19.21 38.86 17.25 39.34 16.18C39.34 16.18 39.81 14.75 41.02 15.02C42.47 15.35 41.09 18.69 40.99 18.85L43.69 20.26C43.81 20.35 43.29 19.48 43.63 18.6C44.79 15.66 45.09 15 45.38 14.09C46.55 10.44 45.59 6.64 43.04 3.96C41.06 1.88 36.74 0.79 34.22 1.03C31.87 1.26 27.97 2.51 25.41 6.02Z" />
						<path id="Path 288" class="shp19" d="M40.75 14.69C38.98 14.05 38.67 16.58 38.67 16.58L38.37 20.14C38.37 20.14 38.41 21.08 39.13 21.32C39.59 21.47 40.7 21.43 41.29 20.39C41.32 20.33 41.99 18.86 42.04 18.77C42.7 17.46 42.51 15.34 40.75 14.69Z" />
					</g>
				</g>
			</g>
		</g>
	</g>
</svg>