<svg xmlns="http://www.w3.org/2000/svg" viewBox="0 0 106 132" width="106" height="132">
	<defs>
		<linearGradient id="grd1" gradientUnits="userSpaceOnUse"  x1="72.654" y1="78.084" x2="99.056" y2="94.064">
			<stop offset="0" stop-color="#7968f3"  />
			<stop offset="0.119" stop-color="#796df3"  />
			<stop offset="0.276" stop-color="#7975f3"  />
			<stop offset="0.455" stop-color="#797af3"  />
			<stop offset="0.65" stop-color="#797ef3"  />
			<stop offset="0.855" stop-color="#7982f3"  />
			<stop offset="1" stop-color="#a0a9fb"  />
		</linearGradient>
		<linearGradient id="grd2" gradientUnits="userSpaceOnUse"  x1="105.3" y1="83.207" x2="-34.382" y2="39.512">
			<stop offset="0" stop-color="#7985f3"  />
			<stop offset="1" stop-color="#7967f3"  />
		</linearGradient>
		<linearGradient id="grd3" gradientUnits="userSpaceOnUse"  x1="24.916" y1="50.393" x2="8.636" y2="31.166">
			<stop offset="0" stop-color="#7969f3"  />
			<stop offset="1" stop-color="#7985f3"  />
		</linearGradient>
	</defs>
	<style>
		tspan { white-space:pre }
		.shp0 { fill: url(#grd1) } 
		.shp1 { fill: url(#grd2) } 
		.shp2 { fill: #eef2f5 } 
		.shp3 { fill: url(#grd3) } 
	</style>
	<g id="Web 1920 – 1">
		<g id="Group 120">
			<g id="Group 82">
				<path id="Path 148" class="shp0" d="M100.53 55.91L6.45 1.59C5.25 0.9 4.17 0.84 3.38 1.29C2.38 1.88 2.37 1.74 1.37 2.32L1.38 2.32C0.6 2.76 0.12 3.72 0.11 5.08L0 68.32C-0.01 71.05 1.91 74.38 4.29 75.75L98.38 130.07C99.58 130.77 100.67 130.83 101.45 130.37L101.44 130.38C102.45 129.79 102.45 129.93 103.46 129.34C104.23 128.89 104.82 127.94 104.83 126.58L104.83 63.35C104.84 60.62 102.91 57.28 100.53 55.91Z" />
				<path id="Path 149" class="shp1" d="M98.52 56.94C100.9 58.31 102.82 61.64 102.81 64.38L102.81 127.61C102.8 130.35 100.76 131.45 98.38 130.07L4.29 75.75C1.91 74.38 0.1 71.05 0.11 68.32L0.11 5.08C0.12 2.35 2.05 1.25 4.43 2.62L98.52 56.94Z" />
				<g id="Group 71">
					<g id="Group 55">
						<path id="Path 150" class="shp2" d="M9.89 51.25L9.87 56.35L10.5 56.71L10.51 55.19C10.51 54.98 10.6 54.87 10.84 55.01C11.08 55.15 11.17 55.36 11.17 55.57L11.16 57.47C11.16 57.74 11 57.76 10.83 57.66L8.25 56.17C8.08 56.07 7.92 55.87 7.92 55.6C7.92 55.33 8.08 55.31 8.25 55.42L9.22 55.97L9.23 51.62L8.26 51.06C8.09 50.97 7.93 50.77 7.93 50.5C7.93 50.23 8.1 50.21 8.27 50.31L9.89 51.25Z" />
					</g>
					<g id="Group 56">
						<path id="Path 151" class="shp2" d="M15.16 54.29C15.38 54.42 15.53 54.54 15.69 54.81C15.88 55.11 15.89 55.33 15.89 55.6L15.89 57.14C15.89 57.41 15.87 57.6 15.68 57.69C15.52 57.77 15.37 57.72 15.15 57.6L13.3 56.53L13.3 58.33L15.55 59.63C15.73 59.73 15.88 59.92 15.88 60.2C15.88 60.47 15.72 60.49 15.55 60.39L12.64 58.71L12.65 56.25C12.65 55.68 12.9 55.55 13.39 55.83L15.23 56.89L15.24 55.09L12.98 53.79C12.81 53.69 12.66 53.49 12.66 53.23C12.66 52.95 12.82 52.94 12.99 53.04L15.16 54.29Z" />
					</g>
					<g id="Group 57">
						<path id="Path 152" class="shp2" d="M19.96 57.06C20.33 57.28 20.62 57.77 20.62 58.2L20.61 59.64C20.61 59.94 20.56 60.13 20.36 60.22C20.55 60.55 20.61 60.8 20.61 61.1L20.6 62.55C20.6 62.97 20.32 63.14 19.94 62.92L17.69 61.62C17.52 61.52 17.36 61.32 17.36 61.05C17.36 60.78 17.52 60.77 17.69 60.86L19.95 62.16L19.95 60.92C19.95 60.5 19.81 60.29 19.62 60.18L18.34 59.44C18.17 59.34 18.01 59.14 18.01 58.87C18.01 58.6 18.17 58.59 18.34 58.69L19.63 59.43C19.81 59.53 19.95 59.49 19.95 59.06L19.96 57.81L17.7 56.51C17.53 56.41 17.38 56.22 17.38 55.95C17.38 55.68 17.53 55.66 17.71 55.76L19.96 57.06Z" />
					</g>
					<g id="Group 58">
						<path id="Path 153" class="shp2" d="M22.75 58.68C23 58.82 23.08 59.05 23.08 59.24L23.07 62.06L24.34 62.79L24.35 60.62C24.35 60.43 24.43 60.28 24.68 60.43C24.93 60.57 25.01 60.8 25.01 61L25 63.17C25.17 63.27 25.32 63.46 25.32 63.74C25.32 64.01 25.17 64.02 25 63.92L24.99 65.46C24.99 65.7 24.9 65.78 24.66 65.65C24.43 65.51 24.34 65.32 24.34 65.08L24.34 63.54L22.42 62.43L22.42 58.87C22.43 58.67 22.51 58.53 22.75 58.68Z" />
					</g>
					<g id="Group 59">
						<path id="Path 154" class="shp2" d="M34.45 65.43C34.62 65.52 34.77 65.72 34.77 65.99C34.77 66.26 34.61 66.28 34.45 66.18L32.84 65.25L32.83 67.05L34.04 67.75C34.25 67.87 34.41 67.99 34.56 68.26C34.74 68.57 34.76 68.76 34.76 69.02L34.76 70.63C34.76 70.86 34.74 71.02 34.6 71.13C34.44 71.26 34.27 71.19 34.03 71.06L32.58 70.22C32.41 70.12 32.31 70 32.15 69.83L31.9 69.56C31.72 69.36 31.52 69.18 31.52 68.92C31.52 68.73 31.67 68.63 31.84 68.73C31.92 68.77 31.98 68.83 32.05 68.91L32.25 69.12C32.33 69.22 32.49 69.41 32.59 69.46L34.1 70.34L34.11 68.54L32.18 67.43L32.19 64.12L34.45 65.43Z" />
					</g>
					<g id="Group 60">
						<path id="Path 155" fill-rule="evenodd" class="shp2" d="M39.09 71.3C39.42 71.5 39.48 71.69 39.48 72.04L39.48 73.72C39.48 74.08 39.35 74.13 39.05 73.96L36.67 72.58C36.36 72.4 36.24 72.2 36.24 71.86L36.26 66.85C36.26 66.68 36.31 66.5 36.54 66.63L36.93 66.86C37.1 66.96 37.24 67.22 37.24 67.42C37.24 67.65 37.1 67.71 36.91 67.6L36.9 70.04L39.09 71.3ZM38.82 73.06L38.83 71.9L36.9 70.79L36.9 71.95L38.82 73.06Z" />
					</g>
					<g id="Group 61">
						<path id="Path 156" class="shp2" d="M44.21 71.07L44.21 73.25C44.21 73.51 44.22 73.54 44.03 73.62L43.11 74.01C42.94 74.08 42.93 74.09 42.93 74.35L42.92 75.81C42.92 76.05 42.83 76.14 42.59 76C42.36 75.86 42.26 75.67 42.26 75.43L42.27 73.62C42.27 73.37 42.28 73.35 42.44 73.28L43.35 72.91C43.57 72.81 43.55 72.81 43.55 72.48L43.56 71.44L41.63 70.33C41.63 70.5 41.51 70.64 41.3 70.52C41.09 70.4 40.97 70.12 40.97 69.95L40.98 69.58C40.98 69.41 41.1 69.27 41.31 69.39L44.21 71.07Z" />
					</g>
					<g id="Group 62">
						<path id="Path 157" fill-rule="evenodd" class="shp2" d="M48.75 76.45C48.86 76.65 48.92 76.87 48.92 77.1L48.92 78.89C48.92 79.36 48.67 79.51 48.26 79.27L46.33 78.16C45.93 77.93 45.68 77.49 45.68 77.02L45.69 75.24C45.69 75 45.75 74.85 45.87 74.79C45.99 74.73 46.14 74.74 46.34 74.85L46.35 72.68C46.35 72.48 46.46 72.37 46.68 72.49L47.96 73.23C48.18 73.35 48.28 73.59 48.28 73.79L48.27 75.97C48.47 76.08 48.63 76.25 48.75 76.45ZM48.26 78.52L48.27 76.72L46.34 75.61L46.34 77.4L48.26 78.52ZM47.01 73.43L47 75.24L47.62 75.59L47.62 73.79L47.01 73.43Z" />
					</g>
					<g id="Group 63">
						<path id="Path 158" fill-rule="evenodd" class="shp2" d="M58.05 79.05C58.23 79.16 58.37 79.42 58.37 79.62L58.36 84.72C58.36 84.92 58.23 85.03 58.03 84.91L57.7 84.72C57.51 84.61 57.37 84.35 57.37 84.15C57.37 83.93 57.51 83.85 57.7 83.97L57.71 81.54L55.46 80.24C55.27 80.13 55.13 79.87 55.13 79.68L55.14 77.75C55.14 77.56 55.28 77.46 55.47 77.56L58.05 79.05ZM57.71 80.79L57.72 79.62L55.79 78.5L55.79 79.68L57.71 80.79Z" />
					</g>
					<g id="Group 64">
						<path id="Path 159" fill-rule="evenodd" class="shp2" d="M62.44 81.59C62.8 81.8 63.09 82.31 63.09 82.72L63.08 87.07C63.08 87.49 62.8 87.66 62.42 87.45L60.5 86.34C60.12 86.12 59.84 85.62 59.84 85.2L59.86 80.85C59.86 80.44 60.15 80.27 60.51 80.48L62.44 81.59ZM62.42 86.69L62.44 82.34L60.51 81.23L60.5 85.58L62.42 86.69Z" />
					</g>
					<g id="Group 65">
						<path id="Path 160" class="shp2" d="M66.53 83.95L66.51 89.05L67.15 89.42L67.15 87.9C67.15 87.68 67.24 87.57 67.48 87.71C67.72 87.85 67.8 88.06 67.8 88.27L67.8 90.17C67.8 90.44 67.64 90.46 67.47 90.36L64.89 88.87C64.72 88.77 64.56 88.57 64.56 88.31C64.56 88.03 64.72 88.02 64.89 88.12L65.86 88.67L65.87 84.32L64.9 83.77C64.74 83.67 64.58 83.47 64.58 83.2C64.58 82.93 64.74 82.91 64.91 83.01L66.53 83.95Z" />
					</g>
					<g id="Group 66">
						<path id="Path 161" class="shp2" d="M71.8 86.99C72.02 87.12 72.17 87.25 72.33 87.51C72.51 87.81 72.53 88.03 72.53 88.3L72.53 89.84C72.53 90.11 72.51 90.31 72.32 90.4C72.16 90.47 72.01 90.42 71.79 90.3L69.94 89.23L69.94 91.03L72.2 92.33C72.36 92.43 72.52 92.62 72.52 92.9C72.52 93.17 72.36 93.19 72.19 93.09L69.28 91.41L69.29 88.95C69.29 88.39 69.54 88.25 70.03 88.53L71.87 89.59L71.88 87.79L69.63 86.49C69.45 86.39 69.3 86.19 69.3 85.93C69.3 85.66 69.46 85.64 69.63 85.74L71.8 86.99Z" />
					</g>
					<g id="Group 67">
						<path id="Path 162" class="shp2" d="M81.32 92.49C81.69 92.71 81.97 93.19 81.97 93.62L81.97 95.07C81.97 95.36 81.92 95.56 81.71 95.65C81.92 95.98 81.96 96.22 81.96 96.53L81.96 97.97C81.96 98.4 81.68 98.56 81.3 98.35L79.05 97.05C78.88 96.95 78.72 96.75 78.72 96.48C78.72 96.21 78.88 96.19 79.05 96.29L81.31 97.59L81.31 96.34C81.31 95.93 81.17 95.71 80.98 95.61L79.7 94.86C79.53 94.77 79.37 94.57 79.37 94.3C79.38 94.03 79.53 94.02 79.7 94.11L80.99 94.85C81.17 94.96 81.31 94.91 81.32 94.49L81.32 93.24L79.06 91.94C78.9 91.84 78.74 91.64 78.74 91.38C78.74 91.11 78.9 91.09 79.07 91.19L81.32 92.49Z" />
					</g>
					<g id="Group 68">
						<path id="Path 163" class="shp2" d="M84.11 94.1C84.36 94.25 84.44 94.48 84.44 94.67L84.43 97.49L85.7 98.22L85.71 96.04C85.71 95.85 85.79 95.71 86.04 95.85C86.29 96 86.37 96.23 86.37 96.42L86.36 98.6C86.53 98.7 86.69 98.89 86.69 99.16C86.68 99.44 86.53 99.45 86.36 99.35L86.35 100.89C86.35 101.13 86.26 101.21 86.02 101.08C85.79 100.94 85.69 100.75 85.7 100.5L85.7 98.97L83.78 97.86L83.79 94.29C83.79 94.1 83.87 93.96 84.11 94.1Z" />
					</g>
					<g id="Group 69">
						<path id="Path 164" class="shp2" d="M91.09 98.13C91.26 98.23 91.41 98.43 91.41 98.7C91.41 98.96 91.26 98.98 91.09 98.88L89.48 97.95L89.48 99.76L90.68 100.45C90.89 100.57 91.05 100.7 91.21 100.97C91.39 101.27 91.41 101.46 91.41 101.72L91.4 103.33C91.4 103.57 91.38 103.72 91.24 103.83C91.08 103.96 90.91 103.89 90.67 103.76L89.21 102.92C89.05 102.82 88.95 102.71 88.79 102.53L88.54 102.26C88.36 102.07 88.16 101.89 88.16 101.62C88.16 101.43 88.31 101.33 88.48 101.43C88.56 101.47 88.62 101.53 88.69 101.61L88.88 101.82C88.98 101.92 89.13 102.11 89.23 102.17L90.75 103.04L90.75 101.25L88.82 100.13L88.83 96.83L91.09 98.13Z" />
					</g>
					<g id="Group 70">
						<path id="Path 165" fill-rule="evenodd" class="shp2" d="M95.73 104.01C96.06 104.2 96.13 104.39 96.12 104.74L96.12 106.43C96.12 106.78 95.99 106.83 95.7 106.66L93.31 105.28C93 105.1 92.88 104.9 92.88 104.56L92.9 99.55C92.9 99.38 92.95 99.21 93.18 99.33L93.57 99.56C93.74 99.66 93.88 99.92 93.88 100.12C93.88 100.35 93.74 100.42 93.55 100.3L93.54 102.75L95.73 104.01ZM95.47 105.77L95.47 104.61L93.54 103.5L93.54 104.65L95.47 105.77Z" />
					</g>
				</g>
				<g id="Group 79">
					<g id="Group 72">
						<path id="Path 166" class="shp2" d="M10.56 65.78C10.71 65.87 10.78 66 10.78 66.16L10.77 68.99C10.77 69.18 10.77 69.3 10.68 69.43C10.53 69.63 10.31 69.59 10.04 69.43L9.78 69.28C9.53 69.14 9.32 68.97 9.17 68.63C9.06 68.4 9.03 68.24 9.03 68.04L9.03 67.31C9.04 67.15 9.1 67.09 9.26 67.18C9.42 67.28 9.48 67.4 9.48 67.56L9.47 68.22C9.47 68.51 9.52 68.63 9.78 68.78L10.02 68.92C10.21 69.02 10.32 69.06 10.33 68.81L10.33 65.91C10.33 65.75 10.4 65.69 10.56 65.78Z" />
					</g>
					<g id="Group 73">
						<path id="Path 167" fill-rule="evenodd" class="shp2" d="M14.05 69.22C14.13 69.47 14.16 69.63 14.16 69.85C14.16 70.1 14.1 70.22 14.02 70.37L13.61 71.07C13.5 71.25 13.32 71.33 13.07 71.18C12.81 71.03 12.64 70.75 12.53 70.45L12.13 69.28C12.04 69.03 11.99 68.84 11.99 68.6C11.99 68.38 12.02 68.25 12.1 68.1L12.54 67.35C12.65 67.17 12.83 67.1 13.08 67.24C13.33 67.38 13.51 67.66 13.61 67.96L14.05 69.22ZM13.65 69.89C13.7 69.81 13.72 69.73 13.72 69.6C13.72 69.43 13.69 69.32 13.62 69.13L13.23 67.99C13.19 67.89 13.17 67.81 13.08 67.75C12.98 67.7 12.96 67.76 12.93 67.81L12.53 68.5C12.46 68.61 12.43 68.69 12.43 68.85C12.43 68.99 12.45 69.09 12.5 69.23L12.92 70.43C12.95 70.52 12.98 70.62 13.07 70.67C13.16 70.73 13.19 70.66 13.22 70.6L13.65 69.89Z" />
					</g>
					<g id="Group 74">
						<path id="Path 168" class="shp2" d="M17.12 69.57C17.28 69.66 17.34 69.79 17.34 69.95L17.33 73.38C17.33 73.54 17.26 73.6 17.11 73.51C16.95 73.42 16.89 73.29 16.89 73.13L16.89 71.67L15.6 70.92L15.59 72.38C15.59 72.54 15.53 72.6 15.37 72.51C15.21 72.42 15.15 72.29 15.15 72.13L15.16 68.7C15.16 68.54 15.23 68.48 15.38 68.57C15.54 68.66 15.61 68.79 15.6 68.95L15.6 70.42L16.89 71.16L16.9 69.7C16.9 69.54 16.96 69.48 17.12 69.57Z" />
					</g>
					<g id="Group 75">
						<path id="Path 169" class="shp2" d="M18.92 70.61L20.06 74.35L20.08 71.54C20.08 71.38 20.14 71.33 20.3 71.42C20.46 71.51 20.52 71.63 20.52 71.8L20.5 75.48L19.93 75.14L18.78 71.44L18.77 74.22C18.77 74.38 18.7 74.43 18.55 74.34C18.38 74.25 18.32 74.12 18.32 73.96L18.33 70.27L18.92 70.61Z" />
					</g>
					<g id="Group 76">
						<path id="Path 170" fill-rule="evenodd" class="shp2" d="M26.72 76.51C26.81 76.77 26.85 76.95 26.85 77.18C26.85 77.38 26.8 77.52 26.72 77.66L26.32 78.35C26.16 78.62 25.97 78.63 25.62 78.43L24.89 78.01C24.78 77.94 24.67 77.81 24.67 77.62C24.67 77.44 24.78 77.44 24.89 77.5L25.1 77.62L25.11 74.7L24.95 74.6C24.8 74.52 24.68 74.39 24.68 74.19C24.68 74.01 24.8 74.01 24.93 74.08L25.67 74.51C26.01 74.71 26.18 74.97 26.33 75.4L26.72 76.51ZM26.32 77.21C26.37 77.12 26.41 77.06 26.41 76.93C26.41 76.76 26.36 76.63 26.3 76.45L25.94 75.39C25.85 75.13 25.81 75.1 25.63 75L25.6 74.98L25.55 74.95L25.54 77.87L25.62 77.92C25.81 78.03 25.85 78.03 25.93 77.89L26.32 77.21Z" />
					</g>
					<g id="Group 77">
						<path id="Path 171" fill-rule="evenodd" class="shp2" d="M29.91 78.38C29.99 78.63 30.02 78.79 30.02 79.01C30.02 79.25 29.96 79.37 29.87 79.53L29.47 80.22C29.36 80.41 29.19 80.49 28.93 80.34C28.67 80.19 28.5 79.91 28.39 79.6L27.99 78.44C27.9 78.18 27.85 78 27.85 77.75C27.85 77.54 27.88 77.41 27.96 77.26L28.41 76.5C28.51 76.33 28.69 76.25 28.94 76.4C29.18 76.54 29.37 76.82 29.47 77.12L29.91 78.38ZM29.5 79.05C29.55 78.96 29.58 78.89 29.58 78.76C29.58 78.59 29.55 78.47 29.48 78.29L29.09 77.14C29.05 77.04 29.03 76.96 28.94 76.91C28.85 76.85 28.82 76.91 28.79 76.97L28.39 77.66C28.32 77.76 28.29 77.84 28.29 78.01C28.29 78.14 28.31 78.25 28.36 78.39L28.78 79.59C28.81 79.68 28.84 79.78 28.93 79.83C29.02 79.88 29.05 79.81 29.08 79.76L29.5 79.05Z" />
					</g>
					<g id="Group 78">
						<path id="Path 172" class="shp2" d="M32.98 78.73C33.09 78.79 33.2 78.93 33.2 79.11C33.2 79.29 33.09 79.31 32.98 79.24L31.46 78.36L31.46 79.57L32.11 79.94C32.22 80.01 32.33 80.14 32.33 80.33C32.33 80.51 32.22 80.52 32.1 80.45L31.46 80.08L31.45 81.29L32.97 82.16C33.08 82.23 33.19 82.36 33.19 82.54C33.19 82.72 33.08 82.73 32.97 82.67L31.01 81.54L31.03 77.6L32.98 78.73Z" />
					</g>
				</g>
				<g id="Group 81">
					<path id="Path 173" class="shp2" d="M25.17 40.48C25.17 39.59 24.54 38.49 23.76 38.04L9.68 29.69C8.89 29.23 8.41 29.6 8.41 30.5L8.41 41.06C8.4 41.96 9.03 43.05 9.82 43.5L23.72 51.53C24.5 51.98 25.14 51.62 25.14 50.72L25.17 40.48Z" />
					<g id="Group 80" style="opacity: 0.251">
						<path id="Path 174" fill-rule="evenodd" class="shp3" d="M25.16 43.52L20.58 40.87C19.64 41.56 19.65 43.44 20.64 45.21L25.15 47.82L25.15 48.45L20.73 45.9C20.44 47.29 19.94 48.36 19.28 48.96L18.56 48.55C19.29 48.08 19.86 47.03 20.17 45.57L13.32 41.62C13.62 43.43 14.19 45.14 14.91 46.44L14.19 46.03C13.54 44.66 13.04 43.02 12.77 41.3L8.41 38.78L8.41 38.15L12.91 40.75C13.83 40.04 13.8 38.16 12.81 36.38L8.42 33.86L8.43 33.23L12.76 35.73C13.04 34.27 13.55 33.16 14.24 32.54L14.95 32.95C14.2 33.43 13.62 34.53 13.31 36.05L20.21 40.03C19.91 38.16 19.34 36.4 18.6 35.06L19.31 35.47C19.99 36.88 20.49 38.58 20.77 40.35L25.16 42.89L25.16 43.52ZM19.93 44.8C19.15 43.07 19.13 41.35 19.88 40.47L13.51 36.79C14.3 38.52 14.33 40.26 13.6 41.15L19.93 44.8Z" />
					</g>
				</g>
			</g>
		</g>
	</g>
</svg>