<svg xmlns="http://www.w3.org/2000/svg" viewBox="0 0 588 506" width="588" height="506">
	<defs>
		<linearGradient id="grd1" gradientUnits="userSpaceOnUse"  x1="307.287" y1="-24.415" x2="284.577" y2="516.647">
			<stop offset="0" stop-color="#7969f3"  />
			<stop offset="1" stop-color="#7985f3"  />
		</linearGradient>
		<linearGradient id="grd2" gradientUnits="userSpaceOnUse"  x1="495.065" y1="511.257" x2="147.798" y2="31.851">
			<stop offset="0" stop-color="#000000"  />
			<stop offset="0.055" stop-color="#202020"  />
			<stop offset="0.156" stop-color="#545454"  />
			<stop offset="0.261" stop-color="#818181"  />
			<stop offset="0.369" stop-color="#a8a8a8"  />
			<stop offset="0.48" stop-color="#c8c8c8"  />
			<stop offset="0.594" stop-color="#e0e0e0"  />
			<stop offset="0.715" stop-color="#f1f1f1"  />
			<stop offset="0.844" stop-color="#fcfcfc"  />
			<stop offset="1" stop-color="#ffffff"  />
		</linearGradient>
		<linearGradient id="grd3" gradientUnits="userSpaceOnUse"  x1="171.516" y1="223.737" x2="507.436" y2="282.019">
			<stop offset="0" stop-color="#000000"  />
			<stop offset="0.216" stop-color="#3a3a3a"  />
			<stop offset="0.761" stop-color="#c6c6c6"  />
			<stop offset="1" stop-color="#ffffff"  />
		</linearGradient>
		<linearGradient id="grd4" gradientUnits="userSpaceOnUse"  x1="508.976" y1="481.219" x2="390.79" y2="283.045">
			<stop offset="0" stop-color="#000000"  />
			<stop offset="0.089" stop-color="#1d1d1d"  />
			<stop offset="0.346" stop-color="#6c6c6c"  />
			<stop offset="0.575" stop-color="#ababab"  />
			<stop offset="0.767" stop-color="#d9d9d9"  />
			<stop offset="0.915" stop-color="#f5f5f5"  />
			<stop offset="1" stop-color="#ffffff"  />
		</linearGradient>
		<linearGradient id="grd5" gradientUnits="userSpaceOnUse"  x1="325.485" y1="-27.271" x2="808.071" y2="389.423">
			<stop offset="0" stop-color="#7984f3"  />
			<stop offset="0.174" stop-color="#797ff3"  />
			<stop offset="0.463" stop-color="#7975f3"  />
			<stop offset="0.829" stop-color="#796ef3"  />
			<stop offset="1" stop-color="#7967f3"  />
		</linearGradient>
		<linearGradient id="grd6" gradientUnits="userSpaceOnUse"  x1="620.604" y1="421.901" x2="378.848" y2="112.403">
			<stop offset="0" stop-color="#7977f3"  />
			<stop offset="0.104" stop-color="#797bf3"  />
			<stop offset="0.277" stop-color="#797cf3"  />
			<stop offset="0.453" stop-color="#797ef3"  />
			<stop offset="0.63" stop-color="#7980f3"  />
			<stop offset="0.811" stop-color="#7982f3"  />
			<stop offset="1" stop-color="#b9bde6"  />
		</linearGradient>
		<linearGradient id="grd7" gradientUnits="userSpaceOnUse"  x1="356.308" y1="103.381" x2="359.141" y2="149.733">
			<stop offset="0" stop-color="#7969f3"  />
			<stop offset="1" stop-color="#7985f3"  />
		</linearGradient>
		<linearGradient id="grd8" gradientUnits="userSpaceOnUse"  x1="365.228" y1="102.838" x2="368.058" y2="149.189">
			<stop offset="0" stop-color="#7969f3"  />
			<stop offset="1" stop-color="#7985f3"  />
		</linearGradient>
		<linearGradient id="grd9" gradientUnits="userSpaceOnUse"  x1="374.145" y1="102.295" x2="376.977" y2="148.645">
			<stop offset="0" stop-color="#7969f3"  />
			<stop offset="1" stop-color="#7985f3"  />
		</linearGradient>
		<linearGradient id="grd10" gradientUnits="userSpaceOnUse"  x1="474.878" y1="244.244" x2="474.17" y2="266.89">
			<stop offset="0" stop-color="#7984f3"  />
			<stop offset="0.174" stop-color="#797ff3"  />
			<stop offset="0.463" stop-color="#7975f3"  />
			<stop offset="0.829" stop-color="#796ef3"  />
			<stop offset="1" stop-color="#7967f3"  />
		</linearGradient>
		<linearGradient id="grd11" gradientUnits="userSpaceOnUse"  x1="475.237" y1="229.185" x2="474.529" y2="246.525">
			<stop offset="0" stop-color="#7984f3"  />
			<stop offset="0.174" stop-color="#797ff3"  />
			<stop offset="0.463" stop-color="#7975f3"  />
			<stop offset="0.829" stop-color="#796ef3"  />
			<stop offset="1" stop-color="#7967f3"  />
		</linearGradient>
		<linearGradient id="grd12" gradientUnits="userSpaceOnUse"  x1="455.227" y1="274.534" x2="496.324" y2="274.534">
			<stop offset="0" stop-color="#7979f3"  />
			<stop offset="0.205" stop-color="#797ff3"  />
			<stop offset="0.596" stop-color="#969ff1"  />
			<stop offset="1" stop-color="#a9b0f9"  />
		</linearGradient>
		<linearGradient id="grd13" gradientUnits="userSpaceOnUse"  x1="494.434" y1="285.274" x2="453.205" y2="261.564">
			<stop offset="0" stop-color="#7979f3"  />
			<stop offset="0.205" stop-color="#797ff3"  />
			<stop offset="0.596" stop-color="#969ff1"  />
			<stop offset="1" stop-color="#a9b0f9"  />
		</linearGradient>
		<linearGradient id="grd14" gradientUnits="userSpaceOnUse"  x1="455.228" y1="283.998" x2="496.324" y2="283.998">
			<stop offset="0" stop-color="#7979f3"  />
			<stop offset="0.205" stop-color="#797ff3"  />
			<stop offset="0.596" stop-color="#969ff1"  />
			<stop offset="1" stop-color="#a9b0f9"  />
		</linearGradient>
		<linearGradient id="grd15" gradientUnits="userSpaceOnUse"  x1="490.339" y1="292.39" x2="449.113" y2="268.681">
			<stop offset="0" stop-color="#7979f3"  />
			<stop offset="0.205" stop-color="#797ff3"  />
			<stop offset="0.596" stop-color="#969ff1"  />
			<stop offset="1" stop-color="#a9b0f9"  />
		</linearGradient>
		<linearGradient id="grd16" gradientUnits="userSpaceOnUse"  x1="455.228" y1="293.468" x2="496.324" y2="293.468">
			<stop offset="0" stop-color="#7979f3"  />
			<stop offset="0.205" stop-color="#797ff3"  />
			<stop offset="0.596" stop-color="#969ff1"  />
			<stop offset="1" stop-color="#a9b0f9"  />
		</linearGradient>
		<linearGradient id="grd17" gradientUnits="userSpaceOnUse"  x1="486.25" y1="299.503" x2="445.021" y2="275.797">
			<stop offset="0" stop-color="#7979f3"  />
			<stop offset="0.205" stop-color="#797ff3"  />
			<stop offset="0.596" stop-color="#969ff1"  />
			<stop offset="1" stop-color="#a9b0f9"  />
		</linearGradient>
		<linearGradient id="grd18" gradientUnits="userSpaceOnUse"  x1="494.814" y1="215.986" x2="495.522" y2="262.458">
			<stop offset="0" stop-color="#7984f3"  />
			<stop offset="0.174" stop-color="#797ff3"  />
			<stop offset="0.463" stop-color="#7975f3"  />
			<stop offset="0.829" stop-color="#796ef3"  />
			<stop offset="1" stop-color="#7967f3"  />
		</linearGradient>
		<linearGradient id="grd19" gradientUnits="userSpaceOnUse"  x1="364.744" y1="442.464" x2="25.998" y2="173.916">
			<stop offset="0" stop-color="#7979f3"  />
			<stop offset="0.205" stop-color="#797ff3"  />
			<stop offset="0.596" stop-color="#969ff1"  />
			<stop offset="1" stop-color="#a9b0f9"  />
		</linearGradient>
		<linearGradient id="grd20" gradientUnits="userSpaceOnUse"  x1="98.213" y1="327.072" x2="86.417" y2="239.394">
			<stop offset="0" stop-color="#7979f3"  />
			<stop offset="0.205" stop-color="#797ff3"  />
			<stop offset="0.596" stop-color="#969ff1"  />
			<stop offset="1" stop-color="#a9b0f9"  />
		</linearGradient>
		<linearGradient id="grd21" gradientUnits="userSpaceOnUse"  x1="125.252" y1="284.618" x2="113.521" y2="196.864">
			<stop offset="0" stop-color="#7979f3"  />
			<stop offset="0.205" stop-color="#797ff3"  />
			<stop offset="0.596" stop-color="#969ff1"  />
			<stop offset="1" stop-color="#a9b0f9"  />
		</linearGradient>
		<linearGradient id="grd22" gradientUnits="userSpaceOnUse"  x1="143.744" y1="298.921" x2="132.014" y2="211.232">
			<stop offset="0" stop-color="#7979f3"  />
			<stop offset="0.205" stop-color="#797ff3"  />
			<stop offset="0.596" stop-color="#969ff1"  />
			<stop offset="1" stop-color="#a9b0f9"  />
		</linearGradient>
		<linearGradient id="grd23" gradientUnits="userSpaceOnUse"  x1="173.218" y1="246.62" x2="161.422" y2="158.859">
			<stop offset="0" stop-color="#7979f3"  />
			<stop offset="0.205" stop-color="#797ff3"  />
			<stop offset="0.596" stop-color="#969ff1"  />
			<stop offset="1" stop-color="#a9b0f9"  />
		</linearGradient>
		<linearGradient id="grd24" gradientUnits="userSpaceOnUse"  x1="189.35" y1="258.397" x2="177.554" y2="170.638">
			<stop offset="0" stop-color="#7979f3"  />
			<stop offset="0.205" stop-color="#797ff3"  />
			<stop offset="0.596" stop-color="#969ff1"  />
			<stop offset="1" stop-color="#a9b0f9"  />
		</linearGradient>
		<linearGradient id="grd25" gradientUnits="userSpaceOnUse"  x1="209.265" y1="233.618" x2="197.469" y2="145.94">
			<stop offset="0" stop-color="#7979f3"  />
			<stop offset="0.205" stop-color="#797ff3"  />
			<stop offset="0.596" stop-color="#969ff1"  />
			<stop offset="1" stop-color="#a9b0f9"  />
		</linearGradient>
		<linearGradient id="grd26" gradientUnits="userSpaceOnUse"  x1="230.022" y1="254.31" x2="218.225" y2="166.549">
			<stop offset="0" stop-color="#7979f3"  />
			<stop offset="0.205" stop-color="#797ff3"  />
			<stop offset="0.596" stop-color="#969ff1"  />
			<stop offset="1" stop-color="#a9b0f9"  />
		</linearGradient>
		<linearGradient id="grd27" gradientUnits="userSpaceOnUse"  x1="257.728" y1="232.66" x2="245.931" y2="144.982">
			<stop offset="0" stop-color="#7979f3"  />
			<stop offset="0.205" stop-color="#797ff3"  />
			<stop offset="0.596" stop-color="#969ff1"  />
			<stop offset="1" stop-color="#a9b0f9"  />
		</linearGradient>
		<linearGradient id="grd28" gradientUnits="userSpaceOnUse"  x1="246.283" y1="216.119" x2="234.487" y2="128.358">
			<stop offset="0" stop-color="#7979f3"  />
			<stop offset="0.205" stop-color="#797ff3"  />
			<stop offset="0.596" stop-color="#969ff1"  />
			<stop offset="1" stop-color="#a9b0f9"  />
		</linearGradient>
		<linearGradient id="grd29" gradientUnits="userSpaceOnUse"  x1="340.399" y1="332.949" x2="323.655" y2="534.905">
			<stop offset="0" stop-color="#7984f3"  />
			<stop offset="0.174" stop-color="#797ff3"  />
			<stop offset="0.463" stop-color="#7975f3"  />
			<stop offset="0.829" stop-color="#796ef3"  />
			<stop offset="1" stop-color="#7967f3"  />
		</linearGradient>
		<linearGradient id="grd30" gradientUnits="userSpaceOnUse"  x1="330.459" y1="347.182" x2="178.584" y2="337.092">
			<stop offset="0" stop-color="#7984f3"  />
			<stop offset="0.174" stop-color="#797ff3"  />
			<stop offset="0.463" stop-color="#7975f3"  />
			<stop offset="0.829" stop-color="#796ef3"  />
			<stop offset="1" stop-color="#7967f3"  />
		</linearGradient>
		<linearGradient id="grd31" gradientUnits="userSpaceOnUse"  x1="362.61" y1="325.854" x2="132.009" y2="310.542">
			<stop offset="0" stop-color="#7984f3"  />
			<stop offset="0.174" stop-color="#797ff3"  />
			<stop offset="0.463" stop-color="#7975f3"  />
			<stop offset="0.829" stop-color="#796ef3"  />
			<stop offset="1" stop-color="#7967f3"  />
		</linearGradient>
		<linearGradient id="grd32" gradientUnits="userSpaceOnUse"  x1="238.643" y1="185.425" x2="-128.981" y2="160.888">
			<stop offset="0" stop-color="#7984f3"  />
			<stop offset="0.174" stop-color="#797ff3"  />
			<stop offset="0.463" stop-color="#7975f3"  />
			<stop offset="0.829" stop-color="#796ef3"  />
			<stop offset="1" stop-color="#7967f3"  />
		</linearGradient>
		<linearGradient id="grd33" gradientUnits="userSpaceOnUse"  x1="149.358" y1="144.906" x2="152.19" y2="96.777">
			<stop offset="0" stop-color="#7968f3"  />
			<stop offset="0.119" stop-color="#796df3"  />
			<stop offset="0.276" stop-color="#7975f3"  />
			<stop offset="0.455" stop-color="#797af3"  />
			<stop offset="0.65" stop-color="#797ef3"  />
			<stop offset="0.855" stop-color="#7982f3"  />
			<stop offset="1" stop-color="#a0a9fb"  />
		</linearGradient>
		<linearGradient id="grd34" gradientUnits="userSpaceOnUse"  x1="140.721" y1="74.511" x2="141.474" y2="65.296">
			<stop offset="0" stop-color="#7968f3"  />
			<stop offset="0.119" stop-color="#796df3"  />
			<stop offset="0.276" stop-color="#7975f3"  />
			<stop offset="0.455" stop-color="#797af3"  />
			<stop offset="0.65" stop-color="#797ef3"  />
			<stop offset="0.855" stop-color="#7982f3"  />
			<stop offset="1" stop-color="#a0a9fb"  />
		</linearGradient>
		<linearGradient id="grd35" gradientUnits="userSpaceOnUse"  x1="134.753" y1="67.172" x2="135.53" y2="42.066">
			<stop offset="0" stop-color="#7968f3"  />
			<stop offset="0.119" stop-color="#796df3"  />
			<stop offset="0.276" stop-color="#7975f3"  />
			<stop offset="0.455" stop-color="#797af3"  />
			<stop offset="0.65" stop-color="#797ef3"  />
			<stop offset="0.855" stop-color="#7982f3"  />
			<stop offset="1" stop-color="#a0a9fb"  />
		</linearGradient>
		<linearGradient id="grd36" gradientUnits="userSpaceOnUse"  x1="184.826" y1="72.776" x2="197.863" y2="19.447">
			<stop offset="0" stop-color="#7968f3"  />
			<stop offset="0.119" stop-color="#796df3"  />
			<stop offset="0.276" stop-color="#7975f3"  />
			<stop offset="0.455" stop-color="#797af3"  />
			<stop offset="0.65" stop-color="#797ef3"  />
			<stop offset="0.855" stop-color="#7982f3"  />
			<stop offset="1" stop-color="#a0a9fb"  />
		</linearGradient>
		<linearGradient id="grd37" gradientUnits="userSpaceOnUse"  x1="264.538" y1="77.405" x2="265.335" y2="68.353">
			<stop offset="0" stop-color="#7968f3"  />
			<stop offset="0.119" stop-color="#796df3"  />
			<stop offset="0.276" stop-color="#7975f3"  />
			<stop offset="0.455" stop-color="#797af3"  />
			<stop offset="0.65" stop-color="#797ef3"  />
			<stop offset="0.855" stop-color="#7982f3"  />
			<stop offset="1" stop-color="#a0a9fb"  />
		</linearGradient>
		<linearGradient id="grd38" gradientUnits="userSpaceOnUse"  x1="275.29" y1="118.963" x2="277.936" y2="87.55">
			<stop offset="0" stop-color="#7968f3"  />
			<stop offset="0.119" stop-color="#796df3"  />
			<stop offset="0.276" stop-color="#7975f3"  />
			<stop offset="0.455" stop-color="#797af3"  />
			<stop offset="0.65" stop-color="#797ef3"  />
			<stop offset="0.855" stop-color="#7982f3"  />
			<stop offset="1" stop-color="#a0a9fb"  />
		</linearGradient>
		<linearGradient id="grd39" gradientUnits="userSpaceOnUse"  x1="278.856" y1="118.429" x2="280.878" y2="89.617">
			<stop offset="0" stop-color="#7968f3"  />
			<stop offset="0.119" stop-color="#796df3"  />
			<stop offset="0.276" stop-color="#7975f3"  />
			<stop offset="0.455" stop-color="#797af3"  />
			<stop offset="0.65" stop-color="#797ef3"  />
			<stop offset="0.855" stop-color="#7982f3"  />
			<stop offset="1" stop-color="#a0a9fb"  />
		</linearGradient>
		<linearGradient id="grd40" gradientUnits="userSpaceOnUse"  x1="454.215" y1="263.639" x2="454.215" y2="309.391">
			<stop offset="0" stop-color="#7969f3"  />
			<stop offset="1" stop-color="#7985f3"  />
		</linearGradient>
		<linearGradient id="grd41" gradientUnits="userSpaceOnUse"  x1="489.532" y1="275.755" x2="482.256" y2="303.519">
			<stop offset="0" stop-color="#7979f3"  />
			<stop offset="0.205" stop-color="#797ff3"  />
			<stop offset="0.596" stop-color="#969ff1"  />
			<stop offset="1" stop-color="#a9b0f9"  />
		</linearGradient>
		<linearGradient id="grd42" gradientUnits="userSpaceOnUse"  x1="448.478" y1="300.245" x2="448.478" y2="358.001">
			<stop offset="0" stop-color="#7969f3"  />
			<stop offset="1" stop-color="#7985f3"  />
		</linearGradient>
		<linearGradient id="grd43" gradientUnits="userSpaceOnUse"  x1="474.655" y1="294.517" x2="474.655" y2="325.433">
			<stop offset="0" stop-color="#7969f3"  />
			<stop offset="1" stop-color="#7985f3"  />
		</linearGradient>
		<linearGradient id="grd44" gradientUnits="userSpaceOnUse"  x1="487.511" y1="284.186" x2="487.511" y2="288.805">
			<stop offset="0" stop-color="#7979f3"  />
			<stop offset="0.205" stop-color="#797ff3"  />
			<stop offset="0.596" stop-color="#969ff1"  />
			<stop offset="1" stop-color="#a9b0f9"  />
		</linearGradient>
		<linearGradient id="grd45" gradientUnits="userSpaceOnUse"  x1="484.363" y1="286.286" x2="484.363" y2="292.338">
			<stop offset="0" stop-color="#7979f3"  />
			<stop offset="0.205" stop-color="#797ff3"  />
			<stop offset="0.596" stop-color="#969ff1"  />
			<stop offset="1" stop-color="#a9b0f9"  />
		</linearGradient>
		<linearGradient id="grd46" gradientUnits="userSpaceOnUse"  x1="482.218" y1="290.029" x2="482.218" y2="296.085">
			<stop offset="0" stop-color="#7979f3"  />
			<stop offset="0.205" stop-color="#797ff3"  />
			<stop offset="0.596" stop-color="#969ff1"  />
			<stop offset="1" stop-color="#a9b0f9"  />
		</linearGradient>
		<linearGradient id="grd47" gradientUnits="userSpaceOnUse"  x1="480.073" y1="293.775" x2="480.073" y2="299.828">
			<stop offset="0" stop-color="#7979f3"  />
			<stop offset="0.205" stop-color="#797ff3"  />
			<stop offset="0.596" stop-color="#969ff1"  />
			<stop offset="1" stop-color="#a9b0f9"  />
		</linearGradient>
		<linearGradient id="grd48" gradientUnits="userSpaceOnUse"  x1="248.351" y1="198.077" x2="248.351" y2="236.731">
			<stop offset="0" stop-color="#7969f3"  />
			<stop offset="1" stop-color="#7985f3"  />
		</linearGradient>
		<linearGradient id="grd49" gradientUnits="userSpaceOnUse"  x1="259.395" y1="226.513" x2="259.395" y2="287.74">
			<stop offset="0" stop-color="#7969f3"  />
			<stop offset="1" stop-color="#7985f3"  />
		</linearGradient>
		<linearGradient id="grd50" gradientUnits="userSpaceOnUse"  x1="246.142" y1="233.434" x2="246.142" y2="273.439">
			<stop offset="0" stop-color="#7969f3"  />
			<stop offset="1" stop-color="#7985f3"  />
		</linearGradient>
		<linearGradient id="grd51" gradientUnits="userSpaceOnUse"  x1="251.892" y1="243.729" x2="251.892" y2="287.163">
			<stop offset="0" stop-color="#7969f3"  />
			<stop offset="1" stop-color="#7985f3"  />
		</linearGradient>
	</defs>
	<style>
		tspan { white-space:pre }
		.shp0 { fill: url(#grd1) } 
		.shp1 { opacity: 0.49;fill: url(#grd2) } 
		.shp2 { opacity: 0.49;fill: url(#grd3) } 
		.shp3 { opacity: 0.49;fill: url(#grd4) } 
		.shp4 { fill: #ffffff } 
		.shp5 { fill: url(#grd5) } 
		.shp6 { fill: url(#grd6) } 
		.shp7 { fill: url(#grd7) } 
		.shp8 { fill: url(#grd8) } 
		.shp9 { fill: url(#grd9) } 
		.shp10 { fill: url(#grd10) } 
		.shp11 { fill: url(#grd11) } 
		.shp12 { fill: url(#grd12) } 
		.shp13 { fill: url(#grd13) } 
		.shp14 { fill: url(#grd14) } 
		.shp15 { fill: url(#grd15) } 
		.shp16 { fill: url(#grd16) } 
		.shp17 { fill: url(#grd17) } 
		.shp18 { fill: url(#grd18) } 
		.shp19 { fill: url(#grd19) } 
		.shp20 { fill: url(#grd20) } 
		.shp21 { fill: url(#grd21) } 
		.shp22 { fill: url(#grd22) } 
		.shp23 { fill: url(#grd23) } 
		.shp24 { fill: url(#grd24) } 
		.shp25 { fill: url(#grd25) } 
		.shp26 { fill: url(#grd26) } 
		.shp27 { fill: url(#grd27) } 
		.shp28 { fill: url(#grd28) } 
		.shp29 { fill: url(#grd29) } 
		.shp30 { fill: url(#grd30) } 
		.shp31 { fill: url(#grd31) } 
		.shp32 { fill: url(#grd32) } 
		.shp33 { fill: url(#grd33) } 
		.shp34 { fill: url(#grd34) } 
		.shp35 { fill: url(#grd35) } 
		.shp36 { fill: url(#grd36) } 
		.shp37 { fill: url(#grd37) } 
		.shp38 { fill: url(#grd38) } 
		.shp39 { fill: url(#grd39) } 
		.shp40 { fill: #ffde83 } 
		.shp41 { fill: url(#grd40) } 
		.shp42 { fill: url(#grd41) } 
		.shp43 { fill: #7985f3 } 
		.shp44 { opacity: 0.102;fill: #000000 } 
		.shp45 { fill: #eef2f5 } 
		.shp46 { fill: url(#grd42) } 
		.shp47 { fill: url(#grd43) } 
		.shp48 { fill: #002172 } 
		.shp49 { fill: url(#grd44) } 
		.shp50 { fill: url(#grd45) } 
		.shp51 { fill: url(#grd46) } 
		.shp52 { fill: url(#grd47) } 
		.shp53 { fill: url(#grd48) } 
		.shp54 { fill: url(#grd49) } 
		.shp55 { fill: url(#grd50) } 
		.shp56 { opacity: 0.102;fill: url(#grd51) } 
	</style>
	<g id="Web 1920 – 1">
		<g id="Group 2">
			<g id="Layer 1">
				<g id="Market Research">
					<path id="Path 1" class="shp0" d="M483.35 431.7C402.67 418.18 467.45 467.08 339.59 497.94C326.92 501.25 313.84 502.7 300.75 502.26C299.34 502.22 297.92 502.12 296.57 501.96C296.36 501.97 296.14 501.95 295.94 501.89C294.82 501.79 293.73 501.66 292.68 501.5C292.04 501.43 291.42 501.33 290.8 501.2C290.35 501.14 289.91 501.06 289.48 500.94C288.51 500.8 287.55 500.62 286.61 500.38C286.46 500.35 286.32 500.3 286.18 500.24C285.23 500.05 284.3 499.82 283.38 499.55C282.19 499.26 281.07 498.89 279.95 498.5C278.83 498.13 277.71 497.74 276.65 497.31C274.51 496.47 272.42 495.51 270.39 494.44C269.76 494.14 269.14 493.78 268.54 493.45C268.07 493.21 267.6 492.95 267.16 492.66C266.63 492.36 266.13 492.03 265.64 491.74C261.97 489.42 258.51 486.77 255.32 483.83C254.56 483.13 253.84 482.41 253.08 481.68C252.39 481.02 251.69 480.33 251 479.61C246.67 474.96 242.69 470 239.1 464.77C238.18 463.48 237.29 462.16 236.36 460.81C234.15 457.45 231.98 454.02 229.83 450.56C228.91 449.11 228.02 447.69 227.13 446.24C225.32 443.27 223.5 440.3 221.63 437.37C221.03 436.41 220.44 435.49 219.85 434.57C218.62 432.65 217.37 430.74 216.09 428.83C215.16 427.45 214.21 426.13 213.28 424.84C212.82 424.18 212.36 423.55 211.9 422.93C193.83 398.23 169.4 378.75 118.56 384.42C116.91 384.72 115.3 385.01 113.71 385.24C96.61 388.35 78.99 386.82 62.67 380.83C34.85 369.98 16.78 344.56 7.71 311.16C2.28 292.78 -0.03 273.63 0.85 254.48C6.82 165.99 81.9 73.57 172.14 76.57C185.49 77.01 198.67 79.72 211.11 84.58C265.81 105.85 250.51 97.05 293.04 41.33C294.82 39.02 296.7 36.55 298.74 34.04C299.57 32.95 300.46 31.93 301.35 30.91C301.94 30.25 302.5 29.62 303.1 28.96C304.18 27.78 305.27 26.62 306.39 25.5C307.51 24.41 308.63 23.33 309.79 22.3C310.88 21.31 312 20.36 313.15 19.4C313.18 19.4 313.22 19.37 313.25 19.34C314.37 18.45 315.53 17.56 316.68 16.7C316.78 16.61 316.89 16.54 317.01 16.47C318.1 15.68 319.22 14.92 320.34 14.19L320.93 13.8C321.99 13.14 323.01 12.51 324.07 11.89C325.28 11.19 326.54 10.5 327.79 9.87C328.88 9.35 329.97 8.82 331.05 8.32C331.31 8.2 331.58 8.09 331.85 8C333.03 7.47 334.22 6.97 335.44 6.51C336.56 6.08 337.72 5.69 338.83 5.32C340.29 4.83 341.77 4.4 343.22 4.04C344.11 3.81 344.97 3.61 345.83 3.41C346.55 3.25 347.28 3.08 348 2.95C348.96 2.75 349.91 2.59 350.84 2.46L351.53 2.36C352.72 2.16 353.9 2.03 355.09 1.9L355.35 1.9C356.31 1.8 357.3 1.7 358.26 1.66C358.46 1.64 358.67 1.63 358.88 1.63C359.28 1.6 359.67 1.57 360.07 1.57C361.12 1.53 362.21 1.5 363.27 1.5C379.18 1.72 394.79 5.82 408.77 13.44C412.43 15.37 415.99 17.51 419.42 19.83C422.94 22.19 426.34 24.74 429.6 27.45C430.69 28.37 431.78 29.29 432.83 30.25C434.98 32.16 437.09 34.14 439.13 36.22C450.71 47.99 460.08 61.75 466.79 76.84C487.9 124.35 460.04 124.94 537.94 180.96C615.92 236.97 606.52 452.4 483.35 431.7Z" />
					<path id="Path 2" class="shp1" d="M483.35 431.7C402.66 418.18 467.45 467.08 339.59 497.94C326.92 501.25 313.84 502.7 300.75 502.26C299.34 502.22 297.92 502.12 296.57 501.96C296.36 501.97 296.14 501.95 295.94 501.89C294.82 501.79 293.73 501.66 292.68 501.5C292.04 501.43 291.42 501.33 290.8 501.2C290.35 501.14 289.91 501.06 289.48 500.94C288.51 500.8 287.55 500.62 286.61 500.38C286.46 500.35 286.32 500.3 286.18 500.24C285.23 500.05 284.3 499.82 283.38 499.55C282.19 499.26 281.07 498.89 279.95 498.5C278.83 498.13 277.71 497.74 276.65 497.31C274.51 496.47 272.42 495.51 270.39 494.44C269.76 494.14 269.14 493.78 268.54 493.45C268.07 493.21 267.6 492.95 267.16 492.66C266.63 492.36 266.13 492.03 265.64 491.74C261.97 489.42 258.51 486.77 255.32 483.83C254.56 483.13 253.84 482.41 253.08 481.68C252.39 481.02 251.69 480.33 251 479.61C246.67 474.96 242.69 470 239.1 464.77C238.18 463.48 237.25 462.13 236.36 460.81C234.15 457.45 231.98 454.02 229.83 450.56C228.91 449.11 228.02 447.69 227.13 446.24C225.32 443.27 223.5 440.3 221.63 437.37C221.03 436.45 220.44 435.49 219.85 434.57C218.62 432.65 217.37 430.74 216.09 428.83C215.16 427.45 214.21 426.13 213.28 424.84C212.82 424.18 212.36 423.55 211.9 422.93C193.83 398.23 169.4 378.75 118.56 384.42C116.91 384.72 115.3 385.01 113.71 385.24C131.62 365.69 151.53 345.78 163.6 339.05C220.7 307.2 224.03 323.09 266.1 296.82C319.25 263.55 350.04 197.67 341.41 135.59C336.02 99.73 319.03 66.62 293.04 41.33C294.82 39.02 296.7 36.55 298.74 34.04C299.57 32.95 300.46 31.93 301.35 30.91C301.94 30.25 302.5 29.62 303.1 28.96C304.18 27.78 305.27 26.62 306.39 25.5C307.51 24.41 308.63 23.33 309.79 22.3C310.88 21.31 312 20.36 313.15 19.4C313.18 19.4 313.22 19.37 313.25 19.34C314.37 18.45 315.53 17.56 316.68 16.7C316.78 16.61 316.89 16.54 317.01 16.47C318.1 15.68 319.22 14.92 320.34 14.19L320.93 13.8C321.99 13.14 323.01 12.51 324.07 11.89C325.28 11.19 326.54 10.5 327.79 9.87C328.88 9.35 329.97 8.82 331.05 8.32C331.31 8.2 331.58 8.09 331.85 8C333.03 7.47 334.22 6.97 335.44 6.51C336.56 6.08 337.72 5.69 338.83 5.32C340.29 4.83 341.77 4.4 343.22 4.04C344.11 3.81 344.97 3.61 345.83 3.41C346.55 3.25 347.28 3.08 348 2.95C348.96 2.75 349.91 2.59 350.84 2.46L351.53 2.36C352.72 2.16 353.9 2.03 355.09 1.9L355.35 1.9C356.31 1.8 357.3 1.7 358.26 1.66C358.46 1.64 358.67 1.63 358.88 1.63C359.28 1.6 359.67 1.57 360.07 1.57C361.12 1.53 362.21 1.5 363.27 1.5C379.18 1.72 394.79 5.82 408.77 13.44C412.42 15.38 415.98 17.52 419.42 19.83C422.91 22.17 426.31 24.74 429.6 27.45C430.69 28.37 431.78 29.29 432.83 30.25C434.98 32.16 437.09 34.14 439.13 36.22C450.71 47.99 460.08 61.75 466.79 76.84C487.9 124.35 460.04 124.94 537.94 180.96C615.92 236.97 606.52 452.4 483.35 431.7Z" />
					<path id="Path 3" class="shp2" d="M483.35 431.71C402.66 418.19 467.45 467.07 339.6 497.94C328.29 500.85 316.66 502.34 304.99 502.39C253.02 501.99 238.71 462.27 216.07 428.84C216.87 427.74 217.75 426.69 218.63 425.67C226.41 417.62 235.53 410.97 245.58 406.03C286.75 383.09 330.88 363.45 364.26 330.2C396 298.56 415.53 256.73 419.4 212.08C422.94 167.38 409.93 122.93 382.85 87.19C362.23 60.71 334.6 40.54 303.09 28.97C353.3 -26.21 436.13 7.92 466.79 76.84C480.88 108.55 473.17 119.34 489.6 139.68C497.79 149.81 512.01 162.32 537.95 180.95C615.9 236.96 606.52 452.4 483.35 431.71Z" />
					<path id="Path 4" class="shp3" d="M483.35 431.71C402.66 418.19 467.45 467.07 339.6 497.94C328.29 500.85 316.66 502.34 304.99 502.39C312.35 480.94 325.03 461.71 341.85 446.5C367.04 422.9 398.17 406.87 427.33 388.37C456.48 369.83 484.89 347.5 499.95 316.41C515.89 283.56 514.88 244.89 508.09 209C505.19 193.54 501.22 178.31 497.35 163.07C496.29 158.97 492.5 149.2 489.6 139.68C497.79 149.81 512.01 162.32 537.95 180.95C615.9 236.96 606.52 452.4 483.35 431.71Z" />
					<g id="Group 1">
						<path id="Path 5" class="shp4" d="M366.23 29.17L367.07 30.41L368.32 31.25L367.07 32.08L366.23 33.33L365.4 32.08L364.15 31.25L365.4 30.41L366.23 29.17Z" />
						<path id="Path 6" class="shp4" d="M425.94 75.6L426.78 76.84L428.03 77.68L426.78 78.51L425.94 79.76L425.11 78.51L423.86 77.68L425.11 76.84L425.94 75.6Z" />
						<path id="Path 7" class="shp4" d="M306.04 113.78L306.88 115.03L308.13 115.87L306.88 116.7L306.04 117.94L305.21 116.7L303.96 115.87L305.21 115.03L306.04 113.78Z" />
						<path id="Path 8" class="shp4" d="M304.12 262.31L304.96 263.56L306.2 264.4L304.96 265.23L304.12 266.48L303.29 265.23L302.04 264.4L303.29 263.56L304.12 262.31Z" />
						<path id="Path 9" class="shp4" d="M39.08 184.85L39.91 186.1L41.16 186.94L39.91 187.77L39.08 189.02L38.24 187.77L36.99 186.94L38.24 186.1L39.08 184.85Z" />
						<path id="Path 10" class="shp4" d="M110.91 109.34L111.75 110.59L113 111.42L111.75 112.26L110.91 113.51L110.08 112.26L108.84 111.42L110.08 110.59L110.91 109.34Z" />
						<path id="Path 11" class="shp4" d="M154.06 177.74L154.89 178.99L156.14 179.82L154.89 180.66L154.06 181.91L153.22 180.66L151.97 179.82L153.22 178.99L154.06 177.74Z" />
						<path id="Path 12" class="shp4" d="M47.96 301.34L48.8 302.58L50.05 303.42L48.8 304.25L47.96 305.5L47.13 304.25L45.89 303.42L47.13 302.58L47.96 301.34Z" />
						<path id="Path 13" class="shp4" d="M196.23 317.94L197.06 319.19L198.31 320.02L197.06 320.86L196.23 322.1L195.39 320.86L194.14 320.02L195.39 319.19L196.23 317.94Z" />
						<path id="Path 14" class="shp4" d="M549.64 286.18L550.48 287.43L551.73 288.26L550.48 289.1L549.64 290.35L548.81 289.1L547.56 288.26L548.81 287.43L549.64 286.18Z" />
						<path id="Path 15" class="shp4" d="M548.59 210.51L549.42 211.76L550.67 212.6L549.42 213.43L548.59 214.68L547.75 213.43L546.5 212.6L547.75 211.76L548.59 210.51Z" />
						<path id="Path 16" class="shp4" d="M466.05 140.92L466.88 142.17L468.13 143L466.88 143.83L466.05 145.08L465.21 143.83L463.97 143L465.21 142.17L466.05 140.92Z" />
						<path id="Path 17" class="shp4" d="M380.86 347.75L381.69 349L382.94 349.83L381.69 350.66L380.86 351.91L380.02 350.66L378.77 349.83L380.02 349L380.86 347.75Z" />
						<path id="Path 18" class="shp4" d="M299.85 338.03L300.69 339.28L301.93 340.11L300.69 340.95L299.85 342.2L299.02 340.95L297.77 340.11L299.02 339.28L299.85 338.03Z" />
						<path id="Path 19" class="shp4" d="M190.7 382.65L191.54 383.9L192.78 384.74L191.54 385.57L190.7 386.82L189.86 385.57L188.62 384.74L189.86 383.9L190.7 382.65Z" />
						<path id="Path 20" class="shp4" d="M319.81 182.16L320.64 183.41L321.89 184.24L320.64 185.08L319.81 186.33L318.97 185.08L317.72 184.24L318.97 183.41L319.81 182.16Z" />
						<path id="Path 21" class="shp4" d="M364.37 58.86L366.32 61.78L369.24 63.73L366.32 65.69L364.37 68.61L362.41 65.69L359.49 63.73L362.41 61.78L364.37 58.86Z" />
						<path id="Path 22" class="shp4" d="M291.54 178.67L293.49 181.59L296.42 183.55L293.49 185.5L291.54 188.42L289.59 185.5L286.66 183.55L289.59 181.59L291.54 178.67Z" />
						<path id="Path 23" class="shp4" d="M89.64 154.67L91.6 157.59L94.52 159.54L91.6 161.5L89.64 164.42L87.69 161.5L84.77 159.54L87.69 157.59L89.64 154.67Z" />
						<path id="Path 24" class="shp4" d="M36.49 237.1L38.44 240.02L41.37 241.98L38.44 243.93L36.49 246.85L34.54 243.93L31.61 241.98L34.54 240.02L36.49 237.1Z" />
						<path id="Path 25" class="shp4" d="M69.4 339.05L71.36 341.97L74.28 343.92L71.36 345.88L69.4 348.8L67.45 345.88L64.53 343.92L67.45 341.97L69.4 339.05Z" />
						<path id="Path 26" class="shp4" d="M179.51 356.35L181.47 359.27L184.39 361.23L181.47 363.18L179.51 366.1L177.56 363.18L174.64 361.23L177.56 359.27L179.51 356.35Z" />
						<path id="Path 27" class="shp4" d="M314.45 283.38L316.4 286.31L319.33 288.26L316.4 290.21L314.45 293.14L312.5 290.21L309.57 288.26L312.5 286.31L314.45 283.38Z" />
						<path id="Path 28" class="shp4" d="M551.87 253.57L553.83 256.5L556.75 258.45L553.83 260.4L551.87 263.33L549.92 260.4L547 258.45L549.92 256.5L551.87 253.57Z" />
						<path id="Path 29" class="shp4" d="M568.99 335.03L570.94 337.95L573.86 339.9L570.94 341.86L568.99 344.78L567.03 341.86L564.11 339.9L567.03 337.95L568.99 335.03Z" />
						<path id="Path 30" class="shp4" d="M434.41 115.92L436.36 118.85L439.28 120.8L436.36 122.75L434.41 125.68L432.45 122.75L429.53 120.8L432.45 118.85L434.41 115.92Z" />
					</g>
					<path id="Path 31" class="shp5" d="M517.83 187.7L512.95 184.89L512.95 184.89L433.95 139.51L350.07 91.32C348.56 90.45 339.96 94.2 339.96 96.31L347.33 100.34L347.33 262.48C347.36 268.4 350.19 273.96 354.96 277.47L506.5 373.5C510.71 375.92 520.58 367.87 520.58 362.02L520.58 193.09C520.57 190.96 519.55 188.96 517.83 187.7L517.83 187.7Z" />
					<path id="Path 32" class="shp6" d="M505.23 372.62L347.24 281.85C342.47 278.35 339.64 272.79 339.61 266.87L339.61 104.73C339.61 98.87 343.03 96.09 347.24 98.51L505.23 189.28C510 192.78 512.83 198.34 512.86 204.27L512.86 366.4C512.85 372.26 509.44 375.04 505.23 372.62Z" />
					<path id="Path 33" class="shp4" d="M510.11 220.48L342.35 124.09C340.64 122.83 339.62 120.83 339.61 118.7L339.61 97.94C339.61 95.83 340.84 94.83 342.35 95.7L510.11 192.09C511.83 193.35 512.85 195.34 512.86 197.47L512.86 218.24C512.85 220.34 511.63 221.35 510.11 220.48Z" />
					<path id="Path 34" class="shp7" d="M360.63 120.4C360.63 123.01 359.11 124.25 357.23 123.17C355.1 121.61 353.84 119.13 353.82 116.49C353.82 113.87 355.35 112.63 357.23 113.71C359.36 115.28 360.62 117.76 360.63 120.4L360.63 120.4Z" />
					<path id="Path 35" class="shp8" d="M369.91 125.73C369.91 128.34 368.39 129.58 366.51 128.5C364.38 126.94 363.11 124.46 363.1 121.82C363.1 119.2 364.63 117.96 366.51 119.04C368.64 120.61 369.9 123.09 369.91 125.73L369.91 125.73Z" />
					<path id="Path 36" class="shp9" d="M379.19 131.06C379.19 133.67 377.66 134.91 375.78 133.83C373.65 132.27 372.39 129.79 372.38 127.15C372.38 124.53 373.9 123.29 375.78 124.37C377.91 125.94 379.18 128.42 379.19 131.06L379.19 131.06Z" />
					<path id="Path 37" class="shp4" d="M379.07 212.68L350.93 196.52C349.49 195.46 348.63 193.77 348.62 191.97L348.62 145.1C348.62 143.32 349.66 142.48 350.93 143.21L379.07 159.38C380.51 160.44 381.37 162.13 381.38 163.93L381.38 210.8C381.38 212.57 380.35 213.42 379.07 212.68Z" />
					<path id="Path 38" class="shp4" d="M501.53 321.1L447.68 290.16C446.23 289.09 445.38 287.41 445.37 285.61L445.37 200.69C445.37 198.91 446.41 198.07 447.68 198.8L501.53 229.74C502.98 230.8 503.84 232.49 503.85 234.29L503.85 319.21C503.85 320.98 502.81 321.83 501.53 321.1Z" />
					<path id="Path 39" class="shp4" d="M408.03 188.56L391.43 179.02C389.98 177.95 389.12 176.27 389.11 174.47L389.11 168.37C389.11 166.59 390.15 165.75 391.43 166.48L408.03 176.02C409.48 177.09 410.34 178.77 410.35 180.57L410.35 186.67C410.35 188.45 409.31 189.29 408.03 188.56Z" />
					<path id="Path 40" class="shp4" d="M419.56 215.57L391.43 199.4C389.98 198.34 389.12 196.65 389.11 194.85L389.11 188.75C389.11 186.97 390.15 186.13 391.43 186.86L419.56 203.03C421.01 204.09 421.87 205.78 421.88 207.58L421.88 213.68C421.88 215.45 420.84 216.3 419.56 215.57Z" />
					<path id="Path 41" class="shp4" d="M419.56 235.95L391.43 219.79C389.98 218.72 389.12 217.04 389.11 215.24L389.11 209.14C389.11 207.36 390.15 206.51 391.43 207.25L419.56 223.41C421.01 224.47 421.87 226.16 421.88 227.96L421.88 234.06C421.88 235.84 420.84 236.68 419.56 235.95Z" />
					<path id="Path 42" class="shp4" d="M379.07 283.66L350.93 267.49C349.49 266.43 348.63 264.74 348.62 262.94L348.62 216.07C348.62 214.3 349.66 213.45 350.93 214.19L379.07 230.35C380.51 231.41 381.37 233.1 381.38 234.9L381.38 281.77C381.38 283.54 380.35 284.39 379.07 283.66Z" />
					<path id="Path 43" class="shp4" d="M408.03 259.53L391.43 249.99C389.98 248.93 389.12 247.24 389.11 245.44L389.11 239.34C389.11 237.56 390.15 236.72 391.43 237.45L408.03 246.99C409.48 248.06 410.34 249.74 410.35 251.54L410.35 257.64C410.35 259.42 409.31 260.27 408.03 259.53Z" />
					<path id="Path 44" class="shp4" d="M419.56 286.54L391.43 270.37C389.98 269.31 389.12 267.62 389.11 265.83L389.11 259.72C389.11 257.95 390.15 257.1 391.43 257.84L419.56 274C421.01 275.06 421.87 276.75 421.88 278.55L421.88 284.65C421.88 286.43 420.84 287.27 419.56 286.54Z" />
					<path id="Path 45" class="shp4" d="M419.56 306.92L391.43 290.76C389.98 289.69 389.12 288.01 389.11 286.21L389.11 280.11C389.11 278.33 390.15 277.48 391.43 278.22L419.56 294.38C421.01 295.45 421.87 297.13 421.88 298.93L421.88 305.03C421.88 306.81 420.84 307.66 419.56 306.92Z" />
					<path id="Path 46" class="shp4" d="M485.91 345.04L447.68 323.08C446.23 322.01 445.38 320.33 445.37 318.53L445.37 315.14C445.37 313.36 446.4 312.52 447.68 313.25L485.91 335.21C487.36 336.28 488.22 337.96 488.22 339.76L488.22 343.15C488.22 344.93 487.18 345.77 485.91 345.04Z" />
					<path id="Path 47" class="shp4" d="M485.91 332.14L447.68 310.17C446.23 309.11 445.38 307.42 445.37 305.63L445.37 302.23C445.37 300.46 446.4 299.61 447.68 300.35L485.91 322.31C487.36 323.37 488.22 325.06 488.22 326.86L488.22 330.25C488.22 332.03 487.18 332.87 485.91 332.14Z" />
					<path id="Path 48" class="shp10" d="M481.19 268.8L468.02 261.23C466.69 260.25 465.89 258.7 465.89 257.04L465.89 238.74C465.89 237.1 466.84 236.32 468.02 237L481.19 244.56C482.53 245.54 483.32 247.1 483.33 248.76L483.33 267.06C483.33 268.7 482.37 269.48 481.19 268.8Z" />
					<path id="Path 49" class="shp11" d="M481.6 239.85L467.61 231.81C466.96 231.49 466.17 231.74 465.83 232.37L463.45 236.15C462.68 237.37 462.72 238.9 463.62 239.42L485.59 252.04C486.49 252.56 486.53 251.07 485.76 248.98L483.38 242.46C483.05 241.44 482.43 240.53 481.6 239.85L481.6 239.85Z" />
					<path id="Path 50" class="shp4" d="M476.72 265.21L472.49 262.78C471.57 262.11 471.03 261.04 471.02 259.89L471.02 251.93C471.02 250.8 471.68 250.26 472.49 250.73L476.72 253.16C477.64 253.83 478.19 254.91 478.19 256.05L478.19 264.01C478.19 265.14 477.53 265.68 476.72 265.21Z" />
					<path id="Path 51" class="shp12" d="M496.32 286.35C496.32 287.89 495.41 288.64 494.3 288L457.22 266.7C455.97 265.77 455.23 264.3 455.23 262.74C455.23 261.19 456.11 260.43 457.22 261.06L494.3 282.36C495.56 283.3 496.31 284.78 496.32 286.35Z" />
					<path id="Path 52" class="shp13" d="M487.36 281.2C487.36 282.74 486.44 283.49 485.33 282.85L457.22 266.7C455.97 265.77 455.23 264.3 455.23 262.74C455.23 261.19 456.12 260.43 457.22 261.06L485.33 277.21C486.59 278.15 487.35 279.62 487.36 281.2L487.36 281.2Z" />
					<path id="Path 53" class="shp14" d="M496.32 295.82C496.32 297.36 495.41 298.11 494.3 297.47L457.22 276.17C455.97 275.24 455.23 273.77 455.23 272.2C455.23 270.62 456.11 269.89 457.22 270.53L494.3 291.83C495.57 292.76 496.32 294.24 496.32 295.82L496.32 295.82Z" />
					<path id="Path 54" class="shp15" d="M476.81 284.6C476.81 286.14 475.89 286.89 474.78 286.25L457.22 276.17C455.97 275.24 455.23 273.77 455.23 272.2C455.23 270.62 456.11 269.89 457.22 270.53L474.78 280.62C476.05 281.55 476.8 283.03 476.81 284.6Z" />
					<path id="Path 55" class="shp16" d="M496.32 305.28C496.32 306.83 495.41 307.57 494.3 306.94L457.22 285.64C455.97 284.7 455.23 283.23 455.23 281.67C455.23 280.09 456.11 279.36 457.22 280L494.3 301.3C495.57 302.23 496.32 303.71 496.32 305.28Z" />
					<path id="Path 56" class="shp17" d="M484 298.2C484 299.74 483.11 300.51 481.97 299.86L457.22 285.64C455.97 284.7 455.23 283.23 455.23 281.67C455.23 280.09 456.11 279.36 457.22 280L481.97 294.22C483.25 295.14 484.01 296.62 484 298.2L484 298.2Z" />
					<path id="Path 57" class="shp4" d="M520.99 232.41L478.95 208.26C475.57 206.32 467.9 209.37 467.9 214.07C467.9 218.76 475.57 223.33 478.95 225.27L516.06 251.19C519.44 253.14 527.11 249.13 527.11 244.43C527.08 239.68 524.81 235.23 520.99 232.41L520.99 232.41Z" />
					<path id="Path 58" class="shp18" d="M516.05 251.19L474.02 227.04C470.19 224.23 467.92 219.77 467.9 215.02L467.9 215.02C467.9 210.33 470.64 208.09 474.02 210.04L516.05 234.19C519.88 237 522.15 241.46 522.17 246.21L522.17 246.21C522.17 250.9 519.43 253.14 516.05 251.19Z" />
					<path id="Path 59" fill-rule="evenodd" class="shp4" d="M514.91 237.02C516.08 238.89 516.18 241.24 515.19 243.21L518.41 249.53L517.79 250.05L514.56 243.72C513.27 244.34 511.41 243.16 510.23 240.83C508.94 238.3 508.94 235.38 510.23 234.33C511.52 233.28 513.62 234.48 514.91 237.02ZM514.28 242.29C515.23 241.52 515.23 239.39 514.28 237.53C513.34 235.68 511.8 234.8 510.86 235.56C509.91 236.33 509.91 238.47 510.86 240.32C511.8 242.18 513.34 243.06 514.28 242.29L514.28 242.29Z" />
					<path id="Path 60" class="shp4" d="M88.6 350.3C113.69 326.07 106.94 294.53 121.08 285.07C133.47 279.95 133.71 306.39 141.6 301.7C149.49 297 155.43 247.56 166.49 241.22C177.54 234.88 174.51 262.05 184.86 256.11C195.21 250.17 193.33 224.91 203.89 218.86C214.44 212.81 208.07 269.79 222.57 260.3C236.03 251.49 234.7 212.88 240.76 208.92C245.89 205.98 246.55 251.48 253.85 255.5L88.6 350.3Z" />
					<path id="Path 61" class="shp19" d="M88.6 350.3C113.69 329.54 106.94 310.49 121.08 301.5C133.47 295.68 133.71 312.75 141.6 308.12C149.49 303.48 155.43 270.28 166.49 263.94C177.54 257.59 174.51 275.79 184.86 269.86C195.21 263.92 193.33 247.95 203.89 241.9C214.44 235.84 208.07 274.02 222.57 264.94C236.03 256.51 234.7 231.79 240.76 228C245.89 225.06 246.55 254.37 253.85 255.5L88.6 350.3Z" />
					<path id="Path 62" class="shp4" d="M94.35 239.51L94.35 291.02C94.34 293.25 93.27 295.34 91.47 296.65C89.89 297.56 88.6 296.51 88.6 294.32L88.6 242.82C88.61 240.59 89.68 238.5 91.47 237.18C93.06 236.27 94.35 237.32 94.35 239.51Z" />
					<path id="Path 63" class="shp4" d="M121.41 197.01L121.41 248.56C121.41 250.78 120.35 252.86 118.57 254.17C116.98 255.08 115.69 254.03 115.69 251.84L115.69 200.29C115.7 198.08 116.77 196 118.57 194.7C120.15 193.79 121.41 194.82 121.41 197.01Z" />
					<path id="Path 64" class="shp4" d="M139.9 211.37L139.9 262.88C139.9 265.09 138.85 267.18 137.06 268.49C135.44 269.42 134.18 268.35 134.18 266.16L134.18 214.65C134.19 212.42 135.26 210.33 137.06 209.02C138.64 208.11 139.9 209.18 139.9 211.37Z" />
					<path id="Path 65" class="shp4" d="M169.36 159.03L169.36 210.54C169.34 212.77 168.28 214.86 166.48 216.17C164.89 217.08 163.6 216.03 163.6 213.84L163.6 162.34C163.61 160.11 164.67 158.01 166.48 156.7C168.06 155.79 169.36 156.8 169.36 159.03Z" />
					<path id="Path 66" class="shp4" d="M185.49 170.77L185.49 222.32C185.47 224.55 184.41 226.63 182.61 227.95C181.03 228.86 179.73 227.81 179.73 225.62L179.73 174.07C179.75 171.85 180.82 169.78 182.61 168.48C184.2 167.57 185.49 168.57 185.49 170.77Z" />
					<path id="Path 67" class="shp4" d="M205.4 146.05L205.4 197.6C205.39 199.82 204.32 201.89 202.53 203.19C200.94 204.1 199.65 203.1 199.65 200.9L199.65 149.35C199.66 147.13 200.73 145.04 202.53 143.72C204.11 142.81 205.4 143.86 205.4 146.05Z" />
					<path id="Path 68" class="shp4" d="M226.16 166.68L226.16 218.23C226.14 220.46 225.08 222.55 223.28 223.86C221.7 224.77 220.41 223.72 220.41 221.53L220.41 169.98C220.42 167.75 221.49 165.66 223.28 164.35C224.87 163.44 226.16 164.49 226.16 166.68Z" />
					<path id="Path 69" class="shp4" d="M253.87 145.1L253.87 196.61C253.85 198.84 252.78 200.92 250.99 202.24C249.4 203.15 248.11 202.1 248.11 199.91L248.11 148.4C248.13 146.18 249.19 144.09 250.99 142.77C252.57 141.86 253.87 142.91 253.87 145.1Z" />
					<path id="Path 70" class="shp4" d="M242.42 128.49L242.42 180.04C242.41 182.27 241.34 184.35 239.54 185.67C237.96 186.58 236.67 185.53 236.67 183.34L236.67 131.79C236.68 129.57 237.75 127.5 239.54 126.2C241.13 125.29 242.42 126.3 242.42 128.49Z" />
					<path id="Path 71" class="shp20" d="M94.35 259.61L94.35 291.02C94.34 293.25 93.27 295.34 91.47 296.65C89.89 297.56 88.6 296.51 88.6 294.32L88.6 262.91C88.61 260.69 89.68 258.62 91.47 257.32C93.06 256.41 94.35 257.41 94.35 259.61Z" />
					<path id="Path 72" class="shp21" d="M121.41 217.15L121.41 248.56C121.41 250.78 120.35 252.86 118.57 254.17C116.98 255.08 115.69 254.03 115.69 251.84L115.69 220.43C115.7 218.2 116.77 216.11 118.57 214.79C120.15 213.89 121.41 214.95 121.41 217.15Z" />
					<path id="Path 73" class="shp22" d="M139.9 231.46L139.9 262.88C139.9 265.09 138.85 267.18 137.06 268.49C135.44 269.42 134.18 268.35 134.18 266.16L134.18 234.74C134.19 232.53 135.26 230.45 137.06 229.16C138.64 228.25 139.9 229.27 139.9 231.46Z" />
					<path id="Path 74" class="shp23" d="M169.36 179.13L169.36 210.54C169.34 212.77 168.28 214.86 166.48 216.17C164.89 217.08 163.6 216.03 163.6 213.84L163.6 182.43C163.62 180.2 164.68 178.11 166.48 176.79C168.06 175.89 169.36 176.93 169.36 179.13Z" />
					<path id="Path 75" class="shp24" d="M185.49 190.9L185.49 222.32C185.47 224.55 184.41 226.63 182.61 227.95C181.03 228.86 179.73 227.81 179.73 225.62L179.73 194.21C179.75 191.98 180.82 189.89 182.61 188.57C184.2 187.66 185.49 188.71 185.49 190.9Z" />
					<path id="Path 76" class="shp25" d="M205.4 166.19L205.4 197.6C205.39 199.82 204.32 201.89 202.53 203.19C200.94 204.1 199.65 203.1 199.65 200.9L199.65 169.49C199.66 167.26 200.73 165.18 202.53 163.86C204.11 162.95 205.4 164 205.4 166.19Z" />
					<path id="Path 77" class="shp26" d="M226.16 186.82L226.16 218.23C226.14 220.46 225.08 222.55 223.28 223.86C221.7 224.77 220.41 223.72 220.41 221.53L220.41 190.12C220.42 187.89 221.49 185.8 223.28 184.48C224.87 183.58 226.16 184.62 226.16 186.82Z" />
					<path id="Path 78" class="shp27" d="M253.87 165.2L253.87 196.61C253.85 198.84 252.78 200.92 250.99 202.24C249.4 203.15 248.11 202.1 248.11 199.91L248.11 168.5C248.13 166.28 249.2 164.21 250.99 162.91C252.57 162 253.87 163 253.87 165.2Z" />
					<path id="Path 79" class="shp28" d="M242.42 148.63L242.42 180.04C242.41 182.27 241.34 184.35 239.54 185.67C237.96 186.58 236.67 185.53 236.67 183.34L236.67 151.93C236.68 149.7 237.75 147.61 239.54 146.29C241.13 145.38 242.42 146.43 242.42 148.63Z" />
					<path id="Path 80" fill-rule="evenodd" class="shp29" d="M429.29 501.43C421.54 505.95 407.87 505.42 398.77 500.25L361.63 479.17C355.27 475.56 352.91 470.66 354.65 466.48L330.82 452.95C307.29 462.45 271.84 459.88 247.48 446.05C220.54 430.76 214.78 389.03 237.7 375.67C260.62 362.32 314.55 369.59 341.23 385.33C355.62 393.81 359.44 420.44 349.25 437.92L371.25 458.64C377.66 458.37 384.03 459.81 389.7 462.82L430.54 464.85C439.65 470.02 447.15 494.59 429.29 501.43ZM329.23 429.26C346.03 419.47 328.92 409.57 319.52 404.08C299.91 392.65 270.05 391.72 253.25 401.51C236.45 411.3 240.49 414.92 260.23 426.13C279.98 437.34 312.43 439.05 329.23 429.26Z" />
					<path id="Path 81" class="shp30" d="M377.77 443.1L364.88 450.61L324.8 427.86L337.69 420.34L377.77 443.1Z" />
					<path id="Path 82" class="shp31" d="M429.29 479.75L429.29 479.75C421.54 484.27 407.88 483.74 398.77 478.57L361.63 457.49C352.53 452.32 351.42 444.47 359.17 439.96L359.17 439.96C366.92 435.44 380.59 435.97 389.7 441.14L426.83 462.22C435.94 467.39 437.04 475.24 429.29 479.75Z" />
					<path id="Path 83" fill-rule="evenodd" class="shp32" d="M337.92 427.89C314.99 441.24 274.43 439.67 247.49 424.37C220.54 409.08 217.27 385.78 240.2 372.42C263.12 359.07 303.69 360.64 330.63 375.93C357.57 391.23 360.84 414.53 337.92 427.89ZM253.25 379.83C236.45 389.62 238.85 406.7 258.59 417.9C278.34 429.11 308.07 430.27 324.86 420.48C341.66 410.69 339.27 393.61 319.52 382.41C299.78 371.2 270.05 370.04 253.25 379.83Z" />
					<path id="Path 84" class="shp4" d="M146.29 110.86L142.42 108.62C144.26 109.47 146.41 109.25 148.05 108.06C152.71 105.03 155.64 99.95 155.94 94.4C156.14 92.42 155.25 90.48 153.63 89.34L157.49 91.58C159.12 92.73 160 94.67 159.8 96.65C159.51 102.2 156.58 107.28 151.92 110.31C150.28 111.5 148.12 111.71 146.29 110.86L146.29 110.86Z" />
					<path id="Path 85" class="shp4" d="M147.99 84.21C150.8 82.16 154.5 81.8 157.66 83.26L161.52 85.51C158.36 84.04 154.66 84.41 151.85 86.45C143.83 91.67 138.79 100.4 138.29 109.95C138.31 116.59 146.4 129.11 150.13 134.55C150.22 134.68 150.34 134.8 150.48 134.88L146.62 132.63C146.47 132.55 146.35 132.44 146.26 132.3C142.53 126.86 134.45 114.34 134.43 107.71C134.93 98.16 139.97 89.42 147.99 84.21Z" />
					<path id="Path 86" fill-rule="evenodd" class="shp33" d="M151.86 86.45C153.91 85.14 156.33 84.5 158.77 84.64C158.98 84.64 159.19 84.67 159.4 84.73C159.6 84.76 159.8 84.8 160 84.86C160.24 84.92 160.47 85 160.69 85.11C160.88 85.17 161.06 85.25 161.23 85.36C164.22 87.27 165.87 90.71 165.48 94.24C165.51 100.87 157.53 122.67 153.83 132.4C153.49 133.36 152.85 134.17 152 134.73C151.51 135.11 150.82 135.12 150.32 134.76C150.25 134.7 150.18 134.62 150.13 134.54C146.4 129.11 138.32 116.58 138.29 109.95C138.79 100.4 143.84 91.66 151.86 86.45ZM146.29 110.85C146.39 110.93 146.5 110.98 146.62 111.02C146.82 111.13 147.03 111.21 147.25 111.26L147.28 111.26L147.61 111.35C147.85 111.38 148.1 111.4 148.35 111.4C149.61 111.35 150.84 110.97 151.91 110.3C156.57 107.27 159.5 102.2 159.81 96.65C159.81 96.32 159.78 95.99 159.75 95.69C159.73 95.5 159.7 95.31 159.67 95.14C159.62 94.85 159.56 94.55 159.48 94.27C159.4 93.99 159.29 93.72 159.15 93.47C159.1 93.34 159.04 93.22 158.96 93.11C158.9 92.97 158.82 92.84 158.71 92.73C158.66 92.6 158.57 92.49 158.46 92.4C158.3 92.21 158.12 92.03 157.92 91.88C157.7 91.69 157.45 91.53 157.18 91.42C156.56 91.14 155.88 91.01 155.2 91.03C154.02 91.13 152.87 91.51 151.86 92.13C147.2 95.16 144.28 100.23 143.99 105.78C143.95 106.95 144.2 108.1 144.7 109.15C145.05 109.87 145.6 110.46 146.29 110.85Z" />
					<path id="Path 87" class="shp34" d="M142.75 72.62C140.92 69.92 139.26 67.11 137.78 64.21L140.22 62.97C141.66 65.77 143.26 68.48 145.02 71.09L142.75 72.62Z" />
					<path id="Path 88" class="shp35" d="M133.74 35.97L131.99 35.73C131.88 36.55 131.77 37.37 131.71 38.19L131.77 38.19L134.45 38.39C134.51 37.62 134.59 36.85 134.7 36.11L133.74 35.97ZM136.62 54.34L134.64 54.97L134.01 55.19C134.21 55.79 134.43 56.4 134.64 57.03C135.25 58.67 135.93 60.34 136.7 62.02L139.2 60.87C138.2 58.74 137.34 56.57 136.62 54.34L136.62 54.34Z" />
					<path id="Path 89" class="shp36" d="M171.87 5.98C171.05 5.98 170.23 6.01 169.43 6.04L169.54 8.78C170.34 8.75 171.11 8.72 171.9 8.72L171.87 5.98ZM179.19 6.37L178.89 9.11C184.34 9.73 189.69 10.94 194.88 12.72L195.75 10.12C190.38 8.28 184.83 7.02 179.19 6.37L179.19 6.37ZM152.68 9.68C150.4 10.64 148.21 11.83 146.16 13.22L147.7 15.49C149.61 14.21 151.63 13.11 153.75 12.2L152.68 9.68ZM198.05 10.94L197.1 13.52C199.26 14.32 201.45 15.22 203.62 16.21L204.77 13.71C202.52 12.7 200.28 11.77 198.05 10.94L198.05 10.94ZM219.55 21.94L218.04 24.24C218.7 24.68 219.36 25.12 220.01 25.56L221.55 23.28C220.89 22.84 220.23 22.38 219.55 21.94L219.55 21.94ZM144.16 14.67C139.51 18.24 135.94 23.04 133.85 28.52L136.4 29.48C138.33 24.48 141.59 20.11 145.83 16.84L144.16 14.67ZM227.42 27.53L225.77 29.72C230.15 33.09 234.33 36.71 238.3 40.55L240.19 38.58C236.15 34.65 231.88 30.97 227.42 27.53L227.42 27.53ZM241.92 40.25L240 42.2C241.64 43.84 243.29 45.54 244.93 47.29L246.96 45.43C245.29 43.65 243.59 41.92 241.92 40.25L241.92 40.25ZM257.87 58.26L255.71 59.96C256.17 60.59 256.67 61.19 257.13 61.83L259.33 60.18C258.83 59.55 258.34 58.89 257.87 58.26Z" />
					<path id="Path 90" class="shp37" d="M266.79 75.55C265.03 72.84 263.22 70.19 261.43 67.66L263.66 66.07C265.48 68.63 267.31 71.31 269.09 74.05L266.79 75.55Z" />
					<path id="Path 91" class="shp38" d="M264.94 88.51L286.02 79.62L290.41 112.51L264.94 88.51Z" />
					<path id="Path 92" class="shp39" d="M290.41 112.51L270.95 82.34L278.86 82.64L290.41 112.51Z" />
					<path id="Path 93" class="shp40" d="M467.66 255.14C467.14 254.13 468.07 251.52 468.07 251.52C468.71 250.69 467.31 250.01 466.64 251.21L464.93 255.8C464.39 256.44 463.97 257.16 463.69 257.95C463.91 259.17 464.37 260.33 465.06 261.36L464.59 264.41L468.59 265.03L469.05 261.98C470.01 260.86 470.54 259.43 470.53 257.96C469.72 256.56 468.13 256.08 467.66 255.14Z" />
					<path id="Path 94" class="shp41" d="M439.24 302.19C439.24 302.19 450.3 293.94 456.67 290.11L463.89 263.8C465.7 263.42 467.58 263.71 469.19 264.61C466.81 278.99 465.91 292.82 462.55 296.67C456.8 302.26 453.34 309.59 446.01 309.39L439.24 302.19Z" />
					<path id="Path 95" class="shp42" d="M482.87 280.82L471.73 296.59L483.46 303.14L498.2 289.74L482.87 280.82Z" />
					<path id="Path 96" class="shp40" d="M452.25 429.67L450.78 435.07L456.6 436.72L457.19 431.46L452.25 429.67Z" />
					<path id="Path 97" class="shp43" d="M451.42 432.71C450.39 433.2 449.46 436.61 450.66 437.11C452.07 437.7 450.78 440.7 452.55 440.47C453.09 440.28 452.26 437.48 453.92 437.19C458.56 436.37 459.51 438.89 464.02 435.19C465.37 434.08 459.9 432.61 457.04 432.79C457.04 432.79 457.3 434.38 455.44 434.28C453.57 434.16 452.85 432.42 451.42 432.71Z" />
					<path id="Path 98" class="shp40" d="M452.17 429.93C452.19 431.62 454.7 431.87 457.19 431.46L464.72 397.16C465.8 384.99 464.18 372.73 459.97 361.26L442.85 352.43C441 369.73 451.15 380.42 452.7 393.55L452.17 429.93Z" />
					<path id="Path 99" class="shp44" d="M455.78 400.61C455.74 402.1 455.56 403.58 455.22 405.03C454.81 406.86 454.44 408.66 454.06 410.47C453.66 412.67 453.09 414.84 452.36 416.97L452.7 393.55C452.13 389.56 451.03 385.66 449.43 381.95C449.6 381.83 449.82 381.78 450.02 381.83C451.36 381.98 452.48 385.87 453.1 385.87C454.02 388.97 454.59 392.16 454.81 395.39C455.27 397.1 455.59 398.85 455.78 400.61Z" />
					<path id="Path 100" class="shp40" d="M433.21 418.65L430.91 423.76L436.4 426.3L437.81 421.2L433.21 418.65Z" />
					<path id="Path 101" class="shp43" d="M431.92 421.53C430.83 421.85 429.37 425.08 430.48 425.76C431.78 426.56 430.04 429.32 431.82 429.37C432.39 429.27 432 426.37 433.69 426.34C438.4 426.26 438.94 428.89 443.98 425.95C445.49 425.06 440.31 422.76 437.46 422.49C437.46 422.49 437.46 424.1 435.64 423.7C433.82 423.31 433.37 421.47 431.92 421.53Z" />
					<path id="Path 102" class="shp40" d="M433.09 418.9C432.85 420.57 435.29 421.21 437.81 421.2L450.6 388.48C453.56 376.63 453.87 364.27 451.51 352.29L435.97 340.9C431.45 357.7 439.8 369.83 439.28 383.05L433.09 418.9Z" />
					<path id="Path 103" class="shp44" d="M450.58 388.48L441.75 411.06C441.97 410.03 442.34 408.88 442.44 408.04C442.54 406.43 442.74 404.82 443.03 403.22C444.04 399.91 445.25 396.66 446.66 393.49C449.24 385.84 447.94 377.54 447.5 369.49C447.28 367.57 447.5 365.62 448.12 363.8C448.78 361.92 450.53 360.65 452.51 360.59L452.54 360.59C453.69 369.93 453.02 379.4 450.58 388.48L450.58 388.48Z" />
					<path id="Path 104" class="shp45" d="M436.39 376.26C432.34 386.87 454.84 388.58 460.23 387.43C465.52 386.31 467.44 385.13 467.18 380.34C466.89 374.94 463.28 355.76 463.28 355.76C463.28 355.76 433 343.29 432.4 352.29C431.44 366.91 436.37 368.88 436.39 376.26Z" />
					<path id="Path 105" class="shp46" d="M431.44 351.49C432.31 358.69 464.23 360.46 464.23 354.05C457.4 330.97 469.16 331.68 464.3 310.88C459.29 302.77 449.7 298.72 440.4 300.77C428.33 309 439.85 326.17 431.44 351.49Z" />
					<path id="Path 106" class="shp40" d="M447.85 300.26C448.83 297.48 449.45 294.58 449.7 291.65L456.35 295.25C455.24 297.63 454.86 300.28 455.28 302.87C452.85 302.84 448.78 302.4 447.85 300.26Z" />
					<path id="Path 107" class="shp44" d="M456.35 295.26C455.65 296.68 455.25 298.23 455.18 299.82C454.71 299.87 454.24 299.87 453.77 299.82C452.96 299.67 452.12 299.89 451.49 300.42C451.27 300.77 451.01 301.08 450.72 301.36C450.33 301.57 449.91 301.71 449.47 301.77C448.78 301.47 448.21 300.93 447.86 300.26C448.84 297.47 449.46 294.57 449.71 291.64L456.35 295.26Z" />
					<path id="Path 108" class="shp40" d="M458.43 286.27C459.71 289.73 459.4 293.59 457.57 296.8C455.13 298.6 451.85 298.78 449.22 297.27C448.15 296.81 447.21 296.09 446.48 295.19L442.76 282.84L442.91 282.46L456.13 280.96C457.16 282.61 457.93 284.4 458.43 286.27L458.43 286.27Z" />
					<path id="Path 109" class="shp44" d="M460.27 288.65C459.45 288.62 458.44 288.62 457.66 288.63C456.98 288.62 456.45 287.83 455.83 287.98C453.99 288.43 452.52 289.8 451.95 291.61C451.69 292.42 451.63 293.31 451.33 294.09C450.92 295.18 450.1 296.06 449.06 296.56C448.99 296.57 448.96 296.61 448.9 296.65C447.95 295.98 447.18 295.08 446.66 294.04L445.5 281.41C446.25 281.95 446 280.9 446.16 280.85L459.08 282.16C459.76 284.27 460.15 286.45 460.27 288.65L460.27 288.65Z" />
					<path id="Path 110" class="shp40" d="M497.87 287.61C497.34 286.28 491.69 285.38 492.02 286.14C492.02 286.14 493.74 287.41 493.69 288.26C492.83 290.96 491.45 287.32 491 287.96C490.39 288.54 491.41 291.31 491.71 292.62L490.39 295.29L493.88 297.02L495.2 294.35C496.38 293.34 497.41 292.63 497.73 291.09C498.49 290.07 498.55 288.69 497.87 287.61Z" />
					<path id="Path 111" class="shp47" d="M460.64 306.48C460.64 306.48 469.5 312.24 476.17 315.5L489.93 294.52C491.7 294.7 493.34 295.52 494.55 296.81C488.17 309.33 483.3 321.78 479.09 324.33C472.17 327.79 461.44 322.21 454.76 319.88L460.64 306.48Z" />
					<path id="Path 112" class="shp48" d="M455.98 289.47C460.44 289.59 459.71 286.83 460.22 284.14C460.74 281.44 459.1 276.57 455.24 277.13C451.93 277.63 448.71 278.57 445.65 279.92C441.71 281.42 441.56 284.45 440.34 288.02C439.12 291.59 441.67 292.43 443.15 294.24C445.17 296.71 438.98 302.03 447.08 302.96C450.73 303.37 458.15 295.76 456.14 294.68C454.14 293.6 452.37 289.38 455.98 289.47Z" />
					<path id="Path 113" class="shp44" d="M480.59 323.06C480.16 323.57 479.66 324 479.1 324.34C474.59 325.89 469.67 325.71 465.29 323.81C464.2 333.01 459.23 337.15 464.23 354.07C464.23 357.14 456.8 358.32 449.03 357.92C451.29 357.17 453.47 356.18 455.53 354.97C456.51 354.47 457.35 353.75 457.98 352.85C459.29 350.8 458.36 348.16 457.89 345.76C457.24 342.48 457.51 339.08 458.67 335.94C459.38 334.07 460.41 332.3 461.06 330.4C461.92 327.85 462.09 325.11 461.56 322.47C461.24 320.78 460.63 319.17 459.76 317.68C465.42 322.44 472.9 324.44 480.18 323.16C480.31 323.12 480.46 323.09 480.59 323.06Z" />
					<path id="Path 114" class="shp49" d="M490.39 287.13L485.69 284.19L484.64 285.86L489.55 288.8L490.39 287.13Z" />
					<path id="Path 115" class="shp50" d="M488.57 290.14L481.69 286.29L480.16 288.48L487.35 292.34L488.57 290.14Z" />
					<path id="Path 116" class="shp51" d="M486.42 293.88L479.55 290.03L478.01 292.23L485.2 296.08L486.42 293.88Z" />
					<path id="Path 117" class="shp52" d="M484.28 297.63L477.4 293.78L475.87 295.97L483.06 299.83L484.28 297.63Z" />
					<path id="Path 118" class="shp40" d="M229.7 190.88C229.96 189.84 228.53 187.61 228.53 187.61C227.75 186.99 228.9 186.05 229.78 187.01L232.38 190.9C233.01 191.37 233.56 191.95 234 192.61C234.06 193.79 233.88 194.97 233.48 196.08L234.58 198.8L231.01 200.25L229.91 197.52C228.77 196.7 227.97 195.49 227.66 194.12C228.11 192.65 229.46 191.85 229.7 190.88Z" />
					<path id="Path 119" class="shp53" d="M266.34 228.25C266.34 228.25 254.29 223.03 247.55 220.88L235.09 198.08C233.33 198.13 231.65 198.81 230.36 199.99C235.71 212.8 239.58 225.41 243.53 228.24C250.09 232.17 254.9 238.2 261.65 236.41L266.34 228.25Z" />
					<path id="Path 120" class="shp40" d="M271.5 342.71C271.73 344.67 272.47 346.54 273.64 348.13L266.6 350.05C266.37 347.94 267.67 344.61 266.6 344.05L271.5 342.71Z" />
					<path id="Path 121" class="shp43" d="M272.71 345.76C273.82 346.14 275.48 349.44 274.64 350.51C273.69 351.57 272.32 352.19 270.89 352.2C266.83 351.66 262.88 350.5 259.16 348.77C257.77 347.39 263.97 345.78 266.91 346.5C266.91 346.5 267.4 347.61 269.31 347.28C271.22 346.95 271.2 345.63 272.71 345.76Z" />
					<path id="Path 122" class="shp40" d="M252.9 352.21C253.13 354.17 253.87 356.03 255.04 357.62L248 359.54C247.76 357.43 249.07 354.1 248 353.54L252.9 352.21Z" />
					<path id="Path 123" class="shp43" d="M254.11 355.26C255.22 355.64 256.88 358.93 256.04 360C255.09 361.07 253.72 361.69 252.29 361.7C248.23 361.16 244.27 360 240.56 358.27C239.16 356.89 245.36 355.28 248.31 356C248.31 356 248.8 357.1 250.7 356.77C252.62 356.44 252.6 355.13 254.11 355.26Z" />
					<path id="Path 124" class="shp45" d="M272.65 343.43C272.82 345.09 268.92 345.27 266.43 345.15L255.72 312.31C253.32 300.49 253.55 288.28 256.4 276.56L272.22 266C275.96 282.77 268.64 294.21 267.12 307.44L272.65 343.43Z" />
					<path id="Path 125" class="shp44" d="M255.72 312.31L263.4 335.86C263.73 334.37 263.77 332.83 263.53 331.32C263.1 327.81 262.64 324.33 262.21 320.82C262.02 319.14 261.74 317.47 261.35 315.82C258.76 311.21 258.1 305.77 259.49 300.67C262.39 288.86 257.97 286.47 257.05 281.5C256.72 288.56 254.36 307.37 255.72 312.31Z" />
					<path id="Path 126" class="shp45" d="M254.06 353.18C254.04 354.85 250.26 355.11 247.81 354.71L240.85 320.87C239.78 308.86 241.38 296.75 245.53 285.42L262.44 276.71C264.27 293.79 254.25 304.34 252.72 317.31L254.06 353.18Z" />
					<path id="Path 127" class="shp44" d="M251.15 331.59C251.81 334.47 252.87 337.28 253.33 340.2C253.43 340.93 253.5 341.62 253.6 342.35L252.74 317.31C253.16 314.07 253.98 310.9 255.19 307.87C255.12 307.77 256.83 303.9 256.74 303.8C254.05 308.22 252.13 313.07 251.05 318.14C250.12 322.58 250.15 327.16 251.15 331.59Z" />
					<path id="Path 128" class="shp54" d="M274.62 277.78C274.62 286.48 244.17 291.15 244.17 284.82C248.52 269.72 242.55 254.9 244.96 237.76C245.9 231.06 258.86 223.95 266.57 227.42C278.48 239.2 268.42 248.49 274.62 277.78Z" />
					<path id="Path 129" class="shp40" d="M259.21 226.91C258.24 224.17 257.62 221.31 257.38 218.41L250.82 221.97C251.91 224.32 252.28 226.94 251.87 229.5C254.27 229.46 258.29 229.02 259.21 226.91Z" />
					<path id="Path 130" class="shp44" d="M250.81 221.98C251.51 223.38 251.9 224.92 251.97 226.48C252.44 226.53 252.9 226.53 253.36 226.48C254.17 226.33 254.99 226.55 255.62 227.08C255.83 227.42 256.09 227.73 256.38 228.01C256.76 228.21 257.18 228.35 257.6 228.4C258.29 228.11 258.86 227.58 259.19 226.91C258.23 224.16 257.62 221.3 257.37 218.4L250.81 221.98Z" />
					<path id="Path 131" class="shp40" d="M247 214.65C246.48 218.26 247.58 221.91 250.01 224.64C252.75 225.87 255.95 225.36 258.17 223.35C259.11 222.69 259.87 221.8 260.39 220.77L261.29 208.32L260.72 207.91L248.11 209.05C247.47 210.85 247.09 212.73 247 214.65Z" />
					<path id="Path 132" class="shp44" d="M247 214.65C247.81 214.62 248.61 214.63 249.38 214.63C250.03 214.6 250.69 214.65 251.33 214.79C253.14 215.23 254.59 216.59 255.16 218.37C255.42 219.18 255.47 220.05 255.77 220.83C256.18 221.9 256.98 222.77 258.02 223.26C258.08 223.27 258.11 223.31 258.17 223.35C259.11 222.69 259.87 221.8 260.39 220.77L261.25 208.58C261.13 208.5 261.32 207.92 261.16 207.87L248.11 209.05C247.47 210.85 247.09 212.73 247 214.65Z" />
					<path id="Path 133" class="shp48" d="M261.25 222.15C260 223.91 258.03 225.03 255.88 225.18C253.88 224.01 252.19 223.16 252.42 220.48C252.58 219.49 253.12 218.6 253.92 217.99C254.45 216.81 253.79 216.29 252.94 215.86C252.07 216.5 251.4 217.37 250.99 218.38L250.51 217.92L252.3 213.92C250.28 214.11 248.25 213.74 246.41 212.87C244.94 211.13 244.75 206.52 247.11 206.52C254 205.27 258.79 200.86 260.77 207.04C263.42 209.33 264.48 212.96 263.49 216.32C261.85 219.17 263.55 221.5 261.25 222.15Z" />
					<path id="Path 134" class="shp40" d="M225.43 277.31C225.43 277.31 223.33 274.62 223.94 273.78C224.28 273.22 225.65 273.83 226.63 273.29C228.47 272.36 225.69 271.42 226.05 270.98C227.07 269.95 229.23 271.05 230.55 271.17L233 269.55L235.13 272.75L232.69 274.38C231.84 275.66 231.27 276.76 229.8 277.26C228.23 277.67 226.05 278.22 225.43 277.31Z" />
					<path id="Path 135" class="shp55" d="M245.77 237.4C245.65 242.98 246.95 248.49 249.54 253.44L232.19 269.19C232.59 270.9 233.59 272.41 235.02 273.44C246.49 265.63 257.42 259.31 259.4 254.87C261.92 247.66 257.19 238.39 252.11 233.43L245.77 237.4Z" />
					<path id="Path 136" class="shp56" d="M259.6 254.01C259.78 256.46 259.15 258.91 257.8 260.97C256.27 262.86 254.54 264.58 252.63 266.09C249.07 269.38 247.24 274.14 247.66 278.97C248.21 281.21 248.57 283.49 248.75 285.79C248.74 286.25 248.67 286.71 248.56 287.16C245.91 287.07 244.16 286.31 244.16 284.79C245.7 278.78 246.2 272.55 245.62 266.37C245.29 266.61 244.96 266.8 244.58 267.03C244.62 266.96 244.67 266.9 244.73 266.84C244.96 266.53 245.25 266.26 245.58 266.04C246.06 265.68 246.57 265.35 247.09 265.04C254.09 260.36 257.76 252.06 256.52 243.73C257.91 246.18 258.87 248.86 259.36 251.64C259.51 252.42 259.59 253.21 259.6 254.01L259.6 254.01Z" />
				</g>
			</g>
		</g>
	</g>
</svg>