<svg xmlns="http://www.w3.org/2000/svg" viewBox="0 0 150 100" width="150" height="100">
	<defs>
		<linearGradient id="grd1" gradientUnits="userSpaceOnUse"  x1="100.665" y1="12.229" x2="-608.576" y2="-440.854">
			<stop offset="0" stop-color="#7968f3"  />
			<stop offset="0" stop-color="#7982f3"  />
			<stop offset="0" stop-color="#797ef3"  />
			<stop offset="0.155" stop-color="#796df3"  />
			<stop offset="0.276" stop-color="#7975f3"  />
			<stop offset="0.455" stop-color="#797af3"  />
			<stop offset="1" stop-color="#a0a9fb"  />
		</linearGradient>
		<clipPath clipPathUnits="userSpaceOnUse" id="cp1">
			<path d="M47.49 39.97C47.6 36 47.72 32.03 47.85 28.05C47.64 34.68 51.25 41.4 58.7 47.06L58.34 58.97C50.89 53.33 47.28 46.58 47.49 39.97Z" />
		</clipPath>
		<clipPath clipPathUnits="userSpaceOnUse" id="cp2">
			<path d="M150 31.17C149.87 35.15 149.75 39.12 149.63 43.08C149.41 50.62 144.26 57.99 134.2 63.45C115.35 73.74 85.91 73.64 66.07 63.72L66.41 51.8C86.27 61.72 115.72 61.82 134.57 51.54C144.61 46.07 149.76 38.7 150 31.17Z" />
		</clipPath>
		<linearGradient id="grd2" gradientUnits="userSpaceOnUse"  x1="-1826.144" y1="736.651" x2="-1736.424" y2="736.651">
			<stop offset="0" stop-color="#7968f3"  />
			<stop offset="0.119" stop-color="#796df3"  />
			<stop offset="0.276" stop-color="#7975f3"  />
			<stop offset="0.455" stop-color="#797af3"  />
			<stop offset="0.65" stop-color="#797ef3"  />
			<stop offset="0.855" stop-color="#7982f3"  />
			<stop offset="1" stop-color="#a0a9fb"  />
		</linearGradient>
		<linearGradient id="grd3" gradientUnits="userSpaceOnUse"  x1="-1844.383" y1="728.515" x2="-1822.392" y2="728.515">
			<stop offset="0" stop-color="#7968f3"  />
			<stop offset="0.119" stop-color="#796df3"  />
			<stop offset="0.276" stop-color="#7975f3"  />
			<stop offset="0.455" stop-color="#797af3"  />
			<stop offset="0.65" stop-color="#797ef3"  />
			<stop offset="0.855" stop-color="#7982f3"  />
			<stop offset="1" stop-color="#a0a9fb"  />
		</linearGradient>
		<linearGradient id="grd4" gradientUnits="userSpaceOnUse"  x1="137.752" y1="-1316.482" x2="233.756" y2="-1316.482">
			<stop offset="0" stop-color="#7979f3"  />
			<stop offset="0.205" stop-color="#797ff3"  />
			<stop offset="0.596" stop-color="#969ff1"  />
			<stop offset="1" stop-color="#a9b0f9"  />
		</linearGradient>
		<linearGradient id="grd5" gradientUnits="userSpaceOnUse"  x1="-1894.657" y1="738.494" x2="-1881.505" y2="738.494">
			<stop offset="0" stop-color="#7968f3"  />
			<stop offset="0.119" stop-color="#796df3"  />
			<stop offset="0.276" stop-color="#7975f3"  />
			<stop offset="0.455" stop-color="#797af3"  />
			<stop offset="0.65" stop-color="#797ef3"  />
			<stop offset="0.855" stop-color="#7982f3"  />
			<stop offset="1" stop-color="#a0a9fb"  />
		</linearGradient>
		<linearGradient id="grd6" gradientUnits="userSpaceOnUse"  x1="119.187" y1="-1252.122" x2="167.436" y2="-1252.122">
			<stop offset="0" stop-color="#7979f3"  />
			<stop offset="0.205" stop-color="#797ff3"  />
			<stop offset="0.596" stop-color="#969ff1"  />
			<stop offset="1" stop-color="#a9b0f9"  />
		</linearGradient>
	</defs>
	<style>
		tspan { white-space:pre }
		.shp0 { fill: #eef2f5 } 
		.shp1 { fill: none } 
		.shp2 { fill: url(#grd1) } 
		.shp3 { fill: url(#grd2) } 
		.shp4 { fill: url(#grd3) } 
		.shp5 { fill: url(#grd4) } 
		.shp6 { fill: url(#grd5) } 
		.shp7 { fill: url(#grd6) } 
	</style>
	<g id="Web 1920 – 1">
		<g id="Group 53">
			<g id="Group 52">
				<g id="Group 43">
					<path id="Path 137" class="shp0" d="M136.55 30.78L136.18 42.68C136.35 37.06 132.8 31.36 125.5 26.86C110.98 17.94 87.17 17.28 72.29 25.39C64.89 29.42 61.1 34.85 60.93 40.39L61.29 28.48C61.46 22.93 65.26 17.5 72.65 13.48C87.53 5.36 111.35 6.01 125.86 14.95C133.16 19.43 136.71 25.16 136.55 30.78L136.55 30.78Z" />
				</g>
				<path id="Path 138" class="shp1" d="M136.55 30.78C136.43 34.75 136.3 38.72 136.18 42.68C136.35 37.06 132.8 31.36 125.5 26.86C110.98 17.94 87.17 17.28 72.28 25.39C64.89 29.42 61.1 34.85 60.93 40.39C61.05 36.42 61.17 32.46 61.29 28.48C61.46 22.93 65.26 17.5 72.65 13.48C87.53 5.36 111.35 6.01 125.86 14.95C133.16 19.43 136.71 25.16 136.55 30.78Z" />
				<path id="Path 139" class="shp2" d="M97.71 66.27C119.3 68.64 138.12 58.55 139.74 43.71C141.37 28.89 125.2 14.94 103.61 12.57C82.03 10.21 63.22 20.3 61.59 35.12C59.94 49.96 76.12 63.91 97.71 66.27Z" />
				<g id="Group 46">
					<g id="Group 45" clip-path="url(#cp1)">
						<g id="Group 44">
							<path id="Path 140" class="shp0" d="M58.7 47.06L58.34 58.97C50.89 53.33 47.28 46.58 47.49 39.97L47.85 28.05C47.64 34.68 51.25 41.4 58.7 47.06L58.7 47.06Z" />
						</g>
					</g>
				</g>
				<g id="Group 49">
					<g id="Group 48" clip-path="url(#cp2)">
						<g id="Group 47">
							<path id="Path 142" class="shp3" d="M150 31.17L149.63 43.08C149.41 50.62 144.26 57.99 134.2 63.45C115.35 73.74 85.91 73.64 66.07 63.72L66.41 51.8C86.27 61.72 115.72 61.82 134.57 51.54C144.61 46.07 149.76 38.7 150 31.17L150 31.17Z" />
						</g>
					</g>
				</g>
				<g id="Group 50">
					<path id="Path 144" class="shp4" d="M66.41 51.8L66.07 63.72L49.66 72.66L50.02 60.75L66.41 51.8Z" />
				</g>
				<g id="Group 51">
					<path id="Path 145" fill-rule="evenodd" class="shp5" d="M135.5 9.69C155.18 21.8 154.78 40.54 134.57 51.54C115.72 61.82 86.27 61.72 66.41 51.8L50.02 60.75L42.29 55.98L58.7 47.06C42.8 34.99 44.4 17.97 63.25 7.7C83.46 -3.3 115.8 -2.41 135.5 9.69ZM125.19 45.76C140.08 37.66 140.38 23.87 125.86 14.95C111.35 6.01 87.53 5.36 72.65 13.48C57.76 21.59 57.46 35.38 71.96 44.29C86.49 53.22 110.3 53.88 125.19 45.76Z" />
				</g>
				<path id="Path 146" class="shp6" d="M3.36 90.39C-0.22 84.51 -0.92 78.4 1.81 76.76C4.59 75.09 10.06 78.46 13.57 84.26C17.1 90.04 17.58 96.42 14.81 98.1C12.07 99.74 6.94 96.29 3.36 90.39Z" />
				<path id="Path 147" fill-rule="evenodd" class="shp7" d="M57.1 71.96C56.48 74 54.54 76.2 52.09 78.31L52.08 78.34C46.89 82.97 21.17 99.65 13.82 98.98C11.8 98.81 7.76 97.45 3.31 90.45C-0.88 83.25 -0.2 79.07 0.59 77.23C1.67 74.67 5.05 71.74 8.31 69.35L8.28 69.36C15.24 64.34 28.73 55.61 36.44 52.65C36.47 52.66 36.52 52.67 36.56 52.67C42.96 50.08 45.17 51.15 46.51 51.83C54.18 55.66 58.83 66.3 57.1 71.96ZM13.58 84.27C10.07 78.49 4.6 75.1 1.82 76.77C-0.91 78.41 -0.21 84.52 3.37 90.42C6.95 96.31 12.09 99.75 14.81 98.12C17.59 96.44 17.12 90.07 13.58 84.27Z" />
			</g>
		</g>
	</g>
</svg>